<svg width="100" height="75" viewBox="0 0 100 75" fill="none" xmlns="http://www.w3.org/2000/svg">
<path d="M18 15C18 17.7614 15.7614 20 13 20C10.2386 20 8 17.7614 8 15C8 12.2386 10.2386 10 13 10C15.7614 10 18 12.2386 18 15Z" fill="#D209B6"/>
<path d="M25 15.5C25 13.567 26.567 12 28.5 12H88.5C90.433 12 92 13.567 92 15.5C92 17.433 90.433 19 88.5 19H28.5C26.567 19 25 17.433 25 15.5Z" fill="#D209B6"/>
<path d="M18 30C18 32.7614 15.7614 35 13 35C10.2386 35 8 32.7614 8 30C8 27.2386 10.2386 25 13 25C15.7614 25 18 27.2386 18 30Z" fill="#D209B6"/>
<path d="M25 31.5C25 29.567 26.567 28 28.5 28H73.5C75.433 28 77 29.567 77 31.5C77 33.433 75.433 35 73.5 35H28.5C26.567 35 25 33.433 25 31.5Z" fill="#D209B6"/>
<path d="M18 45C18 47.7614 15.7614 50 13 50C10.2386 50 8 47.7614 8 45C8 42.2386 10.2386 40 13 40C15.7614 40 18 42.2386 18 45Z" fill="#D209B6"/>
<path d="M25 45.5C25 43.567 26.567 42 28.5 42H62.5C64.433 42 66 43.567 66 45.5C66 47.433 64.433 49 62.5 49H28.5C26.567 49 25 47.433 25 45.5Z" fill="#D209B6"/>
<path d="M18 60C18 62.7614 15.7614 65 13 65C10.2386 65 8 62.7614 8 60C8 57.2386 10.2386 55 13 55C15.7614 55 18 57.2386 18 60Z" fill="#D209B6"/>
<path d="M25 60.5C25 58.567 26.567 57 28.5 57H81.5C83.433 57 85 58.567 85 60.5C85 62.433 83.433 64 81.5 64H28.5C26.567 64 25 62.433 25 60.5Z" fill="#D209B6"/>
</svg>

