<svg width="100" height="95" viewBox="0 0 100 95" fill="none" xmlns="http://www.w3.org/2000/svg">
<path d="M22.9907 77.71C26.1449 77.71 28.7126 80.4831 28.7126 83.8896V84.7725H14V83.8896C14 80.4832 16.5662 77.7102 19.721 77.71H22.9907Z" fill="#F98200"/>
<path d="M21.3559 68C23.3837 68 25.0343 69.7826 25.0343 71.9727C25.034 74.1626 23.3836 75.9443 21.3559 75.9443C19.3282 75.9442 17.6786 74.1625 17.6784 71.9727C17.6784 69.7826 19.3281 68.0001 21.3559 68Z" fill="#F98200"/>
<path d="M22.1055 66.8535H21.1795V60.2861H22.1055V66.8535Z" fill="#F98200"/>
<path d="M22.9943 52.7139C26.1493 52.7139 28.7169 55.4872 28.7172 58.8945V59.7783H14.0009V58.8945C14.0011 55.4872 16.568 52.7139 19.7237 52.7139H22.9943Z" fill="#F98200"/>
<path d="M79.6612 52.7139C82.8161 52.714 85.3838 55.4873 85.384 58.8945V59.7783H70.6669V58.8945C70.6671 55.4872 73.2348 52.7139 76.3906 52.7139H79.6612Z" fill="#F98200"/>
<path d="M51.3273 52.7139C54.4824 52.7139 57.0509 55.4871 57.051 58.8945V59.7773H42.3339V58.8945C42.334 55.4872 44.901 52.7141 48.0567 52.7139H51.3273Z" fill="#F98200"/>
<path d="M21.3595 43.001C23.3878 43.0012 25.0379 44.784 25.0379 46.9746C25.0377 49.1651 23.3877 50.948 21.3595 50.9482C19.3311 50.9482 17.6804 49.1652 17.6802 46.9746C17.6802 44.7838 19.331 43.001 21.3595 43.001Z" fill="#F98200"/>
<path d="M78.0254 43.001C80.0539 43.001 81.7047 44.7838 81.7047 46.9746C81.7045 49.1652 80.0538 50.9482 78.0254 50.9482C75.9972 50.9481 74.3463 49.1651 74.3461 46.9746C74.3461 44.7839 75.9971 43.0011 78.0254 43.001Z" fill="#F98200"/>
<path d="M49.6925 43C51.7208 43 53.3716 44.7831 53.3717 46.9736C53.3717 49.1644 51.7209 50.9472 49.6925 50.9473C47.664 50.9473 46.0132 49.1644 46.0132 46.9736C46.0134 44.783 47.6641 43 49.6925 43Z" fill="#F98200"/>
<path d="M50.5316 31.75H77.0887C77.3401 31.75 77.7146 31.8191 78.0417 32.0449C78.3938 32.2882 78.6773 32.709 78.6774 33.3301V41.6104H77.7514V33.3301C77.7514 33.0875 77.6594 32.9674 77.5426 32.8867C77.4009 32.7891 77.2123 32.7501 77.0887 32.75H50.5316V41.6104H49.6057V32.75H22.6733C22.4097 32.7501 22.2673 32.8748 22.1688 33.0498C22.0553 33.2513 22.0106 33.5152 22.0105 33.6904V41.6104H21.0846V33.6904C21.0846 33.3856 21.1534 32.9286 21.3776 32.5303C21.6167 32.1056 22.0368 31.7501 22.6733 31.75H49.6057V27.21H50.5316V31.75Z" fill="#F98200"/>
<path d="M51.3237 19.71C54.4779 19.71 57.0456 22.4831 57.0456 25.8896V26.7725H42.333V25.8896C42.333 22.4831 44.8999 19.71 48.0549 19.71H51.3237Z" fill="#F98200"/>
<path d="M49.6897 10C51.7175 10.0002 53.3672 11.7827 53.3672 13.9727C53.367 16.1624 51.7173 17.9441 49.6897 17.9443C47.662 17.9443 46.0116 16.1626 46.0114 13.9727C46.0114 11.7826 47.6619 10 49.6897 10Z" fill="#F98200"/>
</svg>
