<svg width="24" height="24" viewBox="0 0 24 24" fill="none" xmlns="http://www.w3.org/2000/svg">
<g clip-path="url(#clip0_74_1017)">
<path fill-rule="evenodd" clip-rule="evenodd" d="M23.0795 16.6151C23.0795 21.7099 18.4629 24.0002 12.0001 24.0002C5.53723 24.0002 0.920654 21.7099 0.920654 16.6511C0.920654 11.1122 3.69094 8.30593 9.2298 5.49964L7.26865 1.8465C7.15164 1.66353 7.08648 1.45222 7.08013 1.23513C7.07377 1.01803 7.12645 0.803274 7.23255 0.613765C7.33866 0.424255 7.49421 0.267095 7.68261 0.159043C7.87102 0.0509906 8.08522 -0.00390289 8.30237 0.000215849H16.1315C16.3351 0.00542383 16.5339 0.062336 16.7094 0.165596C16.8849 0.268856 17.0312 0.415068 17.1346 0.590472C17.238 0.765875 17.295 0.964702 17.3004 1.16824C17.3058 1.37178 17.2592 1.57333 17.1652 1.75393L14.7704 5.49964C20.3075 8.26822 23.0795 11.0745 23.0795 16.6151ZM13.0715 8.37793C13.0715 8.09377 12.9586 7.82125 12.7577 7.62032C12.5568 7.41938 12.2842 7.3065 12.0001 7.3065C11.7159 7.3065 11.4434 7.41938 11.2425 7.62032C11.0415 7.82125 10.9287 8.09377 10.9287 8.37793V9.45279C10.2025 9.48076 9.51145 9.7729 8.98541 10.2743C8.45936 10.7757 8.13448 11.452 8.07176 12.176C8.00903 12.9 8.2128 13.622 8.64477 14.2065C9.07675 14.7909 9.70723 15.1975 10.4178 15.3499L12.9429 15.9019C13.2018 15.9576 13.4308 16.1072 13.5858 16.3218C13.7409 16.5364 13.8111 16.8008 13.7827 17.064C13.7544 17.3272 13.6296 17.5706 13.4325 17.7473C13.2353 17.924 12.9797 18.0214 12.7149 18.0208H11.2852C11.0636 18.0211 10.8473 17.9527 10.6661 17.825C10.485 17.6973 10.3479 17.5165 10.2738 17.3076C10.2305 17.1706 10.1601 17.0436 10.0667 16.9344C9.97338 16.8251 9.85898 16.7357 9.73037 16.6715C9.60175 16.6074 9.46154 16.5698 9.31809 16.5609C9.17463 16.5521 9.03086 16.5722 8.89534 16.62C8.75981 16.6679 8.6353 16.7425 8.52921 16.8395C8.42313 16.9365 8.33764 17.0538 8.27783 17.1845C8.21803 17.3152 8.18513 17.4566 8.1811 17.6003C8.17707 17.7439 8.20199 17.8869 8.25437 18.0208C8.4564 18.5898 8.81422 19.0906 9.28705 19.4661C9.75987 19.8417 10.3287 20.0768 10.9287 20.1448V21.2351C10.9287 21.5192 11.0415 21.7918 11.2425 21.9927C11.4434 22.1936 11.7159 22.3065 12.0001 22.3065C12.2842 22.3065 12.5568 22.1936 12.7577 21.9927C12.9586 21.7918 13.0715 21.5192 13.0715 21.2351V20.1448C13.8279 20.0588 14.5293 19.7072 15.0509 19.1527C15.5725 18.5981 15.8804 17.8765 15.9199 17.1162C15.9594 16.3559 15.7279 15.6063 15.2666 15.0007C14.8053 14.395 14.1441 13.9727 13.4007 13.8088L10.8755 13.2568C10.6706 13.2149 10.4888 13.098 10.3655 12.9291C10.2422 12.7602 10.1863 12.5514 10.2088 12.3435C10.2313 12.1355 10.3306 11.9435 10.4872 11.8049C10.6438 11.6663 10.8464 11.5911 11.0555 11.5939H12.7149C12.9369 11.5923 13.1538 11.6602 13.3352 11.7881C13.5165 11.916 13.6533 12.0975 13.7264 12.3071C13.8261 12.5683 14.024 12.7803 14.2778 12.8976C14.5316 13.0149 14.8213 13.0284 15.0849 12.9351C15.3485 12.8417 15.5652 12.6491 15.6887 12.3982C15.8122 12.1473 15.8327 11.858 15.7458 11.5922C15.5453 11.0224 15.1878 10.5209 14.7147 10.1454C14.2415 9.76997 13.6719 9.5358 13.0715 9.46993V8.37793Z" fill="white"/>
</g>
<defs>
<clipPath id="clip0_74_1017">
<rect width="24" height="24" fill="white"/>
</clipPath>
</defs>
</svg>











