<svg width="26" height="19" viewBox="0 0 26 19" fill="none" xmlns="http://www.w3.org/2000/svg">
<g clip-path="url(#clip0_74_1015)">
<path d="M9.1 9.5C10.1285 9.5 11.1338 9.22142 11.989 8.69948C12.8441 8.17755 13.5106 7.4357 13.9042 6.56775C14.2977 5.6998 14.4007 4.74473 14.2001 3.82332C13.9994 2.90191 13.5042 2.05554 12.777 1.39124C12.0497 0.726945 11.1232 0.274552 10.1145 0.091272C9.10577 -0.0920077 8.06022 0.00205808 7.11005 0.361574C6.15987 0.72109 5.34774 1.32991 4.77636 2.11104C4.20497 2.89218 3.9 3.81054 3.9 4.75C3.9 6.00978 4.44785 7.21796 5.42304 8.10876C6.39823 8.99956 7.72087 9.5 9.1 9.5ZM13 11.875C13.003 11.4784 13.1162 11.0889 13.3291 10.7432C13.1341 10.7246 12.9431 10.6875 12.74 10.6875H12.0616C11.133 11.0787 10.1226 11.2812 9.1 11.2812C8.07743 11.2812 7.06702 11.0787 6.13844 10.6875H5.46C4.01202 10.6878 2.62343 11.2134 1.59955 12.1486C0.575675 13.0839 0.000323102 14.3523 0 15.675L0 17.2188C0 17.6912 0.205446 18.1442 0.571142 18.4783C0.936838 18.8123 1.43283 19 1.95 19H13.3616C13.1279 18.6405 13.0031 18.2306 13 17.8125V11.875ZM24.7 10.6875H23.4V7.71875C23.4 6.93139 23.0576 6.17628 22.4481 5.61953C21.8386 5.06278 21.012 4.75 20.15 4.75C19.288 4.75 18.4614 5.06278 17.8519 5.61953C17.2424 6.17628 16.9 6.93139 16.9 7.71875V10.6875H15.6C15.2552 10.6875 14.9246 10.8126 14.6808 11.0353C14.437 11.258 14.3 11.5601 14.3 11.875V17.8125C14.3 18.1274 14.437 18.4295 14.6808 18.6522C14.9246 18.8749 15.2552 19 15.6 19H24.7C25.0448 19 25.3754 18.8749 25.6192 18.6522C25.863 18.4295 26 18.1274 26 17.8125V11.875C26 11.5601 25.863 11.258 25.6192 11.0353C25.3754 10.8126 25.0448 10.6875 24.7 10.6875ZM20.15 16.0312C19.8929 16.0312 19.6415 15.9616 19.4278 15.8311C19.214 15.7006 19.0473 15.5152 18.949 15.2982C18.8506 15.0812 18.8248 14.8424 18.875 14.6121C18.9251 14.3817 19.049 14.1701 19.2308 14.0041C19.4126 13.838 19.6442 13.7249 19.8964 13.6791C20.1486 13.6332 20.4099 13.6568 20.6475 13.7466C20.885 13.8365 21.0881 13.9887 21.2309 14.184C21.3738 14.3793 21.45 14.6089 21.45 14.8438C21.45 15.1587 21.313 15.4607 21.0692 15.6834C20.8254 15.9061 20.4948 16.0312 20.15 16.0312ZM21.45 10.6875H18.85V7.71875C18.85 7.40381 18.987 7.10176 19.2308 6.87906C19.4746 6.65636 19.8052 6.53125 20.15 6.53125C20.4948 6.53125 20.8254 6.65636 21.0692 6.87906C21.313 7.10176 21.45 7.40381 21.45 7.71875V10.6875Z" fill="white"/>
</g>
<defs>
<clipPath id="clip0_74_1015">
<rect width="26" height="19" fill="white"/>
</clipPath>
</defs>
</svg>











