<svg width="100" height="95" viewBox="0 0 100 95" fill="none" xmlns="http://www.w3.org/2000/svg">
<path d="M51.0693 32.7549H79.665C79.943 32.7549 80.3521 32.8311 80.707 33.0762C81.0883 33.3395 81.3779 33.7809 81.3779 34.418V43.333H80.3779V34.418C80.3779 34.1247 80.2625 33.9839 80.1387 33.8984C79.9885 33.7948 79.7911 33.7549 79.665 33.7549H51.0693V43.333H50.0693V33.7549H21.0684C20.8043 33.7551 20.6488 33.8784 20.5342 34.082C20.4064 34.3096 20.3564 34.6065 20.3564 34.8057V43.333H19.3564V34.8057C19.3564 34.4884 19.4278 34.009 19.6631 33.5908C19.912 33.1488 20.3634 32.7552 21.0684 32.7549H50.0693V27.8281H51.0693V32.7549Z" fill="#D209B6"/>
<path d="M21.167 53.166C24.3827 53.1662 27 55.7843 27 59V59.833H12V59C12 55.7843 14.6165 53.1662 17.833 53.166H21.167Z" fill="#D209B6"/>
<path d="M52.167 53.166C55.3827 53.1662 58 55.7843 58 59V59.833H43V59C43 55.7843 45.6165 53.1662 48.833 53.166H52.167Z" fill="#D209B6"/>
<path d="M83.167 53.166C86.3827 53.1662 89 55.7843 89 59V59.833H74V59C74 55.7843 76.6165 53.1662 79.833 53.166H83.167Z" fill="#D209B6"/>
<path d="M19.5 44C21.5675 44 23.25 45.6825 23.25 47.75C23.2498 49.8174 21.5674 51.5 19.5 51.5C17.4326 51.5 15.7502 49.8174 15.75 47.75C15.75 45.6825 17.4325 44 19.5 44Z" fill="#D209B6"/>
<path d="M50.5 44C52.5675 44 54.25 45.6825 54.25 47.75C54.2498 49.8174 52.5674 51.5 50.5 51.5C48.4326 51.5 46.7502 49.8174 46.75 47.75C46.75 45.6825 48.4325 44 50.5 44Z" fill="#D209B6"/>
<path d="M81.5 44C83.5675 44 85.25 45.6825 85.25 47.75C85.2498 49.8174 83.5674 51.5 81.5 51.5C79.4326 51.5 77.7502 49.8174 77.75 47.75C77.75 45.6825 79.4325 44 81.5 44Z" fill="#D209B6"/>
<path d="M52.167 19.166C55.3827 19.1662 58 21.7843 58 25V25.833H43V25C43 21.7843 45.6165 19.1662 48.833 19.166H52.167Z" fill="#D209B6"/>
<path d="M50.5 10C52.5675 10 54.25 11.6825 54.25 13.75C54.2498 15.8174 52.5674 17.5 50.5 17.5C48.4326 17.5 46.7502 15.8174 46.75 13.75C46.75 11.6825 48.4325 10 50.5 10Z" fill="#D209B6"/>
</svg>

