<svg width="24" height="24" viewBox="0 0 24 24" fill="none" xmlns="http://www.w3.org/2000/svg">
<g clip-path="url(#clip0_153_852)">
<path d="M23.9904 11.9766C23.9904 12.8203 23.3654 13.4813 22.6571 13.4813H21.3238L21.3529 20.9906C21.3529 21.1172 21.3446 21.2438 21.3321 21.3703V22.1297C21.3321 23.1656 20.5863 24.0047 19.6654 24.0047H18.9988C18.9529 24.0047 18.9071 24.0047 18.8613 24C18.8029 24.0047 18.7446 24.0047 18.6863 24.0047L17.3321 24H16.3321C15.4113 24 14.6654 23.1609 14.6654 22.125V18C14.6654 17.1703 14.0696 16.5 13.3321 16.5H10.6654C9.92793 16.5 9.3321 17.1703 9.3321 18V22.125C9.3321 23.1609 8.58626 24 7.66543 24H5.33626C5.27376 24 5.21126 23.9953 5.14876 23.9906C5.09876 23.9953 5.04876 24 4.99876 24H4.3321C3.41126 24 2.66543 23.1609 2.66543 22.125V16.875C2.66543 16.8328 2.66543 16.7859 2.6696 16.7438V13.4766H1.33626C0.586263 13.4766 0.00292969 12.8203 0.00292969 11.9719C0.00292969 11.55 0.12793 11.175 0.419596 10.8469L11.0988 0.375C11.3904 0.046875 11.7238 0 12.0154 0C12.3071 0 12.6404 0.09375 12.8904 0.328125L23.5321 10.8516C23.8654 11.1797 24.0321 11.5547 23.9904 11.9766Z" fill="white"/>
</g>
<defs>
<clipPath id="clip0_153_852">
<rect width="24" height="24.0047" fill="white"/>
</clipPath>
</defs>
</svg>
