<svg width="100" height="100" viewBox="0 0 100 100" fill="none" xmlns="http://www.w3.org/2000/svg">
<path d="M37.6283 46.5965C36.3305 48.7605 35.584 51.293 35.584 54C35.584 59.6487 38.8334 64.5375 43.5644 66.9019L35.5548 84.787C24 79.3561 16 67.6126 16 54C16 49.0854 17.0429 44.4144 18.9192 40.196L37.6283 46.5965Z" fill="#0476D9"/>
<path d="M50.3724 39.5888L50.2593 20.0011C50.1729 20.0004 50.0865 20 50 20C36.3311 20 24.5458 28.0662 19.145 39.6982L37.9252 46.1232C40.4988 42.186 44.9453 39.584 50 39.584C50.1245 39.584 50.2487 39.5856 50.3724 39.5888Z" fill="#021F59"/>
<path d="M50.8033 20.0096C69.2098 20.4363 83.9999 35.4909 84 54C84 72.7777 68.7777 88 50 88C45.0281 88 40.3057 86.9322 36.0488 85.0144L44.0553 67.1368C45.8679 67.9583 47.8804 68.416 50 68.416C57.9617 68.416 64.416 61.9617 64.416 54C64.4159 46.3463 58.4514 40.0862 50.9169 39.6132L50.8033 20.0096Z" fill="#0339A6" fill-opacity="0.5"/>
</svg>
