<svg width="100" height="100" viewBox="0 0 100 100" fill="none" xmlns="http://www.w3.org/2000/svg">
<path d="M37.6283 36.5965C36.3305 38.7605 35.584 41.293 35.584 44C35.584 49.6487 38.8334 54.5375 43.5644 56.9019L35.5548 74.787C24 69.3561 16 57.6126 16 44C16 39.0854 17.0429 34.4144 18.9192 30.196L37.6283 36.5965Z" fill="#D209B6" fill-opacity="0.5"/>
<path d="M50.3724 29.5888L50.2593 10.0011C50.1729 10.0004 50.0865 10 50 10C36.3311 10 24.5458 18.0662 19.145 29.6982L37.9252 36.1232C40.4988 32.186 44.9453 29.584 50 29.584C50.1245 29.584 50.2487 29.5856 50.3724 29.5888Z" fill="#D209B6"/>
<path d="M50.8033 10.0096C69.2098 10.4363 83.9999 25.4909 84 44C84 62.7777 68.7777 78 50 78C45.0281 78 40.3057 76.9322 36.0488 75.0144L44.0553 57.1368C45.8679 57.9583 47.8804 58.416 50 58.416C57.9617 58.416 64.416 51.9617 64.416 44C64.4159 36.3463 58.4514 30.0862 50.9169 29.6132L50.8033 10.0096Z" fill="#D209B6"/>
</svg>

