<svg width="1040" height="908" viewBox="0 0 1040 908" fill="none" xmlns="http://www.w3.org/2000/svg">
<path d="M338.77 537.561C349.53 529.421 354.87 529.831 364.58 539.431C375.05 549.781 385.57 560.071 396.07 570.381C390.98 571.241 388.22 574.921 385.79 578.941C372.67 600.561 358.79 621.711 345.82 643.431C343.52 647.291 340.97 651.001 338.48 654.731C333.28 662.531 327.67 663.671 320.63 657.601C313.49 651.441 304.97 646.981 298.97 639.351C295.92 635.471 290.95 633.561 287.1 630.361C283.69 627.531 277.08 630.051 275.46 634.301C273.97 638.211 273.35 642.341 273.35 646.541C273.34 728.301 273.34 810.061 273.35 891.821C273.35 894.501 273.59 897.141 274.6 899.661C275.4 901.661 276.49 903.211 279 902.831C326.92 902.651 374.82 902.741 422.72 902.761C425.27 903.001 425.69 901.141 426.06 899.301C426.52 897.001 426.38 894.651 426.38 892.321C426.39 846.351 426.39 800.391 426.38 754.421C426.38 749.921 426.58 745.571 428.35 741.221C430.02 737.141 429.14 732.521 430.15 728.071C432.95 715.741 438.54 705.001 445.93 695.021C457.81 678.991 470.92 663.971 483.8 648.751C487.91 643.891 492.77 639.571 496.08 633.951C498.48 629.871 500.31 630.151 503.04 634.011C517.11 653.951 522.78 676.351 519.87 700.241C518.09 714.911 519.75 729.571 518.04 744.031C516 761.311 517.84 778.711 515.82 795.791C514.08 810.461 515.82 825.131 514 839.561C512.36 852.521 512.98 865.451 512.05 878.351C511.23 889.741 500.67 899.311 489.21 899.751C483.05 899.991 476.89 899.721 470.73 899.861C469.18 899.891 467.33 899.521 466.36 901.491C467.61 903.501 469.62 902.801 471.31 902.841C476.3 902.951 481.3 902.841 486.3 902.901C488.12 902.921 489.99 902.861 491.6 903.971C492.08 904.491 492.13 905.041 491.74 905.631C490.93 906.261 489.97 906.271 489.01 906.321C337.11 906.361 185.21 906.351 33.33 906.331C32.72 906.321 32.1 906.291 31.49 906.221C29.23 905.551 27.06 904.581 24.75 904.031C14.48 899.101 8.56 891.081 7.39 879.651C6.28 868.891 5.79 858.111 5.38 847.301C4.35 820.221 3.56 793.141 1.8 766.081C0.939999 752.831 1.26 739.471 0.990002 726.171C0.950002 724.221 1.46 722.141 0 720.411C0 703.421 0 686.421 0 669.431C3.96 666.381 2.98 661.451 4.33 657.461C10.05 640.641 19.84 626.841 33.55 615.711C33.9 615.431 34.47 615.431 34.94 615.301C35.64 617.471 34.03 618.681 32.89 620.041C29.03 624.641 28.98 624.971 32.88 629.641C45.05 644.201 57.16 658.821 69.37 673.361C76.34 681.651 83.39 689.911 88.88 699.271C97.41 713.801 102.81 729.271 103.5 746.391C105.5 795.651 103.83 844.931 104.4 894.201C104.5 902.871 104.42 902.881 113.16 902.881C158.28 902.891 203.41 902.861 248.53 902.881C251.13 902.881 251.7 900.821 252.43 898.971C253.56 896.111 253.46 893.091 253.46 890.101C253.46 809.521 253.46 728.941 253.48 648.351C253.48 644.321 253.14 640.361 251.99 636.501C249.99 629.771 242.91 627.131 237.56 631.771C232.7 635.991 226.43 638.591 222.92 644.411C221.88 646.131 219.94 647.061 218.17 647.991C214.88 649.711 212.24 652.001 209.91 655.001C203.59 663.121 196.35 663.381 189.16 656.181C187.26 654.281 185.8 652.081 184.45 649.771C174.48 632.671 163.29 616.311 153.17 599.311C148.67 591.751 144.64 583.901 139.75 576.561C138.15 574.161 136.95 571.051 133.07 571.831C131.71 572.461 130.24 572.811 128.86 573.391C128.22 573.681 127.57 573.941 126.93 574.201C124.4 575.141 122.09 576.571 119.55 577.481C118.93 577.791 118.3 578.071 117.65 578.351C115.41 579.101 113.47 580.911 110.84 580.261C110.37 580.081 109.99 579.781 109.7 579.371C114.49 577.131 119.16 574.571 124.1 572.731C129.85 570.591 134.57 567.291 138.79 562.881C146.38 554.961 154.25 547.311 162.02 539.561C171.74 529.871 177 529.491 187.91 537.631C188.89 538.211 190.04 538.511 190.87 539.361C211.21 559.541 231.41 579.861 251.69 600.101C252.75 601.161 253.8 602.231 254.87 603.281C261.46 609.661 265.37 609.741 271.85 603.291C291.57 583.671 311.21 563.961 330.88 544.301C332.53 542.651 334.15 540.981 335.86 539.381C336.69 538.501 337.87 538.251 338.77 537.561Z" fill="#6F6571"/>
<path d="M35.99 907.351C35.67 906.591 35.91 906.121 36.71 905.921C67.03 905.791 97.34 905.871 127.66 905.871C246.42 905.861 365.19 905.871 483.95 905.841C485.9 905.841 487.95 906.411 489.81 905.301C490.4 905.281 490.99 905.251 491.58 905.231C495.08 903.381 499.04 903.081 502.72 903.321C515.37 904.131 528.01 903.681 540.64 903.711C585.57 903.801 630.51 903.151 675.42 903.961C705.31 904.501 735.19 904.871 765.08 904.941C767.73 904.951 770.41 905.151 773 904.281C775.8 903.761 778.64 903.871 781.47 903.871C829.44 903.871 877.41 903.871 925.38 903.861C927.38 903.861 929.38 903.871 931.37 903.771C934.39 903.621 935.89 902.051 936.06 899.061C936.18 896.901 936.16 894.731 936.16 892.571C936.16 821.451 936.13 750.321 936.18 679.201C936.2 654.861 945.03 633.951 961.95 616.641C980.22 597.931 998.86 579.581 1017.4 561.141C1020.23 558.321 1022.68 555.161 1025.64 552.481C1031.03 558.031 1032.66 565.471 1035.77 572.201C1037.33 575.581 1036.06 579.961 1039.63 582.481C1039.63 604.141 1039.63 625.801 1039.63 647.461C1038.36 649.231 1038.58 651.281 1038.65 653.261C1039.56 679.411 1038.07 705.571 1036.64 731.601C1035.37 754.681 1036.66 777.891 1033.41 800.891C1032.32 808.601 1033.32 816.531 1033.15 824.351C1032.75 841.981 1031.22 859.561 1030.79 877.201C1030.48 889.781 1023.65 899.491 1011.7 904.911C1009.35 905.981 1006.99 906.391 1004.44 906.391C1002.15 906.391 999.74 905.921 997.64 907.371" fill="#ECEAEC"/>
<path d="M773.72 905.351C771.77 906.601 769.57 906.361 767.42 906.361C744.29 906.361 721.14 906.991 698.03 906.241C634.96 904.201 571.88 906.101 508.81 905.141C503.06 905.051 497.32 906.001 491.59 905.211C491.77 904.971 491.94 904.721 492.1 904.461C493.11 903.111 494.68 903.101 496.13 902.781C507.72 900.171 515.18 891.111 516.47 879.191C518.09 864.261 517.36 849.201 518.64 834.341C520.6 811.601 519.18 788.731 522.11 766.071C522.81 760.621 522.21 755.081 522.36 749.591C523 726.471 525.16 703.401 524.4 680.231C523.75 660.441 516.7 643.271 503.99 628.341C500.44 624.171 496.64 620.161 492.25 616.811C481.84 608.551 469.78 603.351 457.64 598.321C454.57 597.051 451.51 595.751 448.53 594.271C442.31 591.201 435.83 588.711 429.53 585.831C427.96 585.111 425.86 584.941 425.72 582.541C427.53 582.421 428.52 581.891 428.91 579.671C431.42 565.501 438.25 553.341 447.39 542.491C459.57 528.031 475.73 519.801 493.16 513.341C511.27 506.621 529.04 498.971 547.09 492.061C554.36 489.281 561.66 486.591 568.79 483.481C572.59 481.721 574.63 484.001 576.5 486.791C583.88 497.851 591.24 508.931 598.63 519.991C612.3 540.441 626.03 560.851 639.62 581.351C650.27 597.421 669.83 599.971 683.11 588.341C689.24 582.971 694.83 577.061 700.62 571.351C701.68 570.311 702.36 568.091 704.46 570.051C704.73 570.571 704.9 571.101 704.99 571.671C705.25 574.671 705.13 577.671 705.14 580.671C705.15 584.981 706.25 588.981 709.14 592.201C711.55 594.891 712.49 597.941 712.24 601.381C711.28 614.991 710.32 628.591 709.8 642.231C709.51 649.871 708.56 657.481 708.23 665.131C707.34 685.411 705.95 705.661 704.72 725.911C703.9 739.361 703.04 752.811 702.35 766.271C701.26 787.711 699.71 809.121 698.69 830.551C698.01 844.851 696.49 859.101 696.31 873.411C696.21 881.411 695.27 889.351 694.79 897.321C694.45 902.851 694.86 903.701 700.16 903.721C721.82 903.811 743.47 903.811 765.13 903.721C770.67 903.701 771.07 902.721 770.81 897.021C770.1 881.401 769.01 865.791 768.09 850.181C766.93 830.581 765.89 810.981 764.62 791.391C763.78 778.441 762.95 765.491 762.26 752.531C761.1 730.771 759.58 709.021 758.54 687.261C757.83 672.471 756.45 657.721 756.08 642.901C755.74 629.101 754.21 615.351 753.73 601.541C753.6 597.831 753.89 594.701 756.62 591.941C759.31 589.221 760.48 585.811 760.33 581.931C760.21 578.601 760.37 575.271 760.24 571.951C760.13 571.231 759.87 570.531 759.57 569.871C759.27 569.331 758.96 568.781 758.59 568.281C758.23 567.861 757.87 567.421 757.5 567.001C757.14 566.631 756.79 566.241 756.43 565.861C756.07 565.511 755.73 565.151 755.39 564.791C755.04 564.461 754.71 564.111 754.37 563.761C754.02 563.431 753.69 563.091 753.36 562.751C753.02 562.421 752.69 562.081 752.36 561.741C752.02 561.421 751.69 561.081 751.36 560.741C751.02 560.421 750.69 560.081 750.36 559.741C750.02 559.421 749.69 559.081 749.36 558.741C749.02 558.421 748.69 558.081 748.36 557.741C748.02 557.421 747.69 557.081 747.36 556.741C747.02 556.421 746.69 556.081 746.36 555.741C746.02 555.421 745.69 555.081 745.36 554.741C745.02 554.421 744.69 554.081 744.36 553.741C744.02 553.421 743.69 553.081 743.36 552.741C743.02 552.421 742.69 552.081 742.36 551.741C742.02 551.421 741.69 551.081 741.36 550.741C741.02 550.421 740.69 550.081 740.36 549.741C740.02 549.421 739.69 549.081 739.36 548.741C739.01 548.411 738.68 548.071 738.35 547.731C737.99 547.401 737.65 547.051 737.31 546.701C736.94 546.351 736.57 545.991 736.21 545.631C735.8 545.251 735.42 544.861 735.05 544.441C734.65 543.971 734.35 543.451 734.2 542.851C734.16 542.411 734.23 541.991 734.41 541.591C734.74 541.251 735.14 541.101 735.61 541.151C739.95 543.471 742.76 547.491 746.2 550.801C751.22 555.611 756.08 560.601 760.98 565.551C762.28 566.861 763.39 568.291 764.01 570.061C764.32 570.801 764.58 571.551 764.78 572.331C764.93 572.901 765.01 573.461 765.05 574.051C765.3 581.641 764.84 588.951 759.85 595.371C757.11 598.901 757.95 603.471 758.49 607.501C759.2 612.791 759.93 618.151 759.88 623.391C759.73 638.251 761.52 652.971 762.4 667.741C763.52 686.491 763.61 705.311 765.87 723.991C765.95 724.651 766.12 725.321 766.09 725.971C765.19 742.661 767.7 759.201 768.59 775.791C769.48 792.361 769.25 809.071 771.81 825.551C771.91 826.211 772.08 826.871 772.05 827.531C771.35 843.211 774 858.741 774.21 874.371C774.3 881.201 774.33 887.981 775.71 894.751C776.44 898.351 777.59 902.451 773.72 905.351Z" fill="#DAD8DB"/>
<path d="M773.72 905.351C775.4 902.211 775.27 898.671 774.45 895.601C772.66 888.891 773.13 882.121 772.63 875.361C771.22 856.071 771.61 836.661 768.83 817.451C768.31 813.861 768.95 810.121 768.68 806.481C767.23 787.191 767.49 767.791 764.84 748.571C764.32 744.811 764.9 740.921 764.69 737.101C763.77 720.581 762.54 704.081 761.88 687.561C761.63 681.341 760.74 675.201 760.56 668.971C760.06 652.441 758.52 635.951 757.91 619.421C757.73 614.511 756.68 609.731 756.64 604.821C756.6 599.741 757.27 595.461 760.65 591.081C764.71 585.811 763.63 578.821 763.76 572.411C766.4 571.981 767.55 574.141 769.04 575.561C774.09 580.381 778.88 585.441 784.35 589.831C794.99 598.381 814.52 597.371 823.53 584.651C829.3 576.501 834.73 568.141 840.27 559.841C856.33 535.781 872.4 511.721 888.43 487.631C890.38 484.701 892.24 481.481 896.69 483.471C909.99 488.801 923.25 494.201 936.58 499.431C956.43 507.221 976.82 513.781 995.7 523.781C1008.2 530.401 1017.82 540.641 1025.65 552.441C1026.03 555.221 1023.96 556.611 1022.34 558.231C1003.38 577.201 984.52 596.291 965.41 615.101C951.87 628.421 942.88 644.141 939.15 662.741C938.28 667.081 937.63 671.521 937.63 676.041C937.69 749.851 937.67 823.651 937.67 897.461C937.67 904.921 937.28 905.301 929.68 905.301C877.68 905.341 825.7 905.351 773.72 905.351Z" fill="#DAD8DB"/>
<path d="M189.8 539.621C188.89 539.221 188.17 538.641 187.94 537.611C190.24 537.131 189.91 535.301 189.95 533.661C190.41 515.541 188.27 497.471 189.01 479.351C189.11 476.901 187.57 475.881 185.83 474.771C169.14 464.091 154.9 450.781 143.55 434.531C134.96 422.221 128.2 409.011 123.76 394.521C121.7 387.811 120.87 380.791 118.15 374.251C115.86 368.751 111.83 365.341 105.76 365.571C91.26 366.121 81.55 359.161 75.68 346.491C71.77 338.061 72.42 328.881 73.45 320.011C74.84 308.061 80.8 298.901 92.13 293.781C94.31 292.801 95.47 291.131 94.95 288.611C104.88 294.101 124.89 291.371 134.17 280.551C143.71 269.431 155.36 260.241 163.89 248.201C168.6 241.541 174.02 235.421 178.46 228.541C183.53 220.681 190.54 218.131 199.23 221.731C216.16 228.731 233.03 235.871 250.64 241.011C270.79 246.891 291.21 251.511 312.04 254.391C325.72 256.281 339.36 258.391 353.11 259.821C357.43 260.271 361.75 260.201 366.07 260.471C378.01 261.231 386.96 267.521 395.13 275.461C396.21 276.501 397.38 277.481 398.31 278.641C406.75 289.201 417.96 292.121 430.83 290.561C431.16 292.531 432.28 293.671 434.13 294.541C446.91 300.571 453.65 310.281 452.98 324.851C452.6 333.121 453.52 341.471 449.08 349.111C443.85 358.111 436.64 364.011 425.89 364.521C412.14 365.171 408.4 370.261 405.6 382.221C396.39 421.591 374.82 452.501 340.45 474.151C337.83 475.801 336.91 477.641 336.92 480.621C336.98 497.921 336.87 515.231 336.9 532.541C336.9 534.321 335.91 536.731 338.79 537.541C338.59 538.601 337.83 539.141 336.93 539.551C332.87 539.951 333.5 536.711 333.45 534.581C333.28 526.841 333.04 519.091 333.59 511.351C335.27 502.431 334.13 493.421 334.5 484.451C334.67 480.451 333.05 480.441 330.02 481.921C319.83 486.911 309.42 491.631 298.23 493.591C282.39 496.381 266.54 498.361 250.21 496.551C235.66 494.941 221.77 491.591 208.13 486.641C204.52 485.331 201.12 483.561 197.67 481.901C193.14 479.721 192.43 480.091 192.42 484.981C192.4 493.301 192.17 501.631 192.62 509.961C194.28 518.661 193.46 527.421 193.28 536.161C193.22 538.021 192.93 540.481 189.8 539.621Z" fill="#FEE0B3"/>
<path d="M430.82 290.571C429.77 291.621 428.82 292.641 427.05 292.551C417.33 292.041 407.94 291.031 400.73 283.161C396.59 278.641 391.73 274.801 387.38 270.461C380.91 264.011 372.53 262.171 364.13 261.831C341.04 260.881 318.31 257.091 295.65 253.261C274.17 249.631 253.13 243.711 232.46 236.541C220.76 232.481 209.75 226.881 198.15 222.671C191.15 220.131 184.49 221.851 180.26 228.221C168.35 246.141 154.48 262.351 139.01 277.291C134.38 281.761 130.43 287.081 124.31 289.551C116 292.901 107.14 292.751 98.35 292.521C95.91 292.461 96.6 289.501 94.98 288.641L94.93 288.581C92.59 285.721 92.78 281.901 92.14 278.711C88.36 259.551 85.41 240.311 89 220.611C90.08 214.671 91.4 208.711 92.01 202.671L92.03 202.621C92.59 202.081 92.39 201.181 92.99 200.671L93.02 200.611C93.25 196.441 95.33 192.741 96.01 188.691C100.06 180.451 102.91 171.711 107.38 163.621C117.6 145.141 130.39 128.911 146.88 115.591C155.12 108.931 163.43 102.451 172.93 97.6513C191.83 82.6313 214.36 76.8313 237.48 73.6613C269.67 69.2513 301.26 72.6113 331.66 84.7013C336.61 86.6713 341.18 89.5213 346.2 91.3113C348.97 92.2913 349.38 95.5813 351.96 96.6013L351.92 96.5713C354.13 98.1613 356.35 99.7313 358.97 100.611C375.67 110.331 389.6 123.261 401.75 138.141C420.74 161.401 432.22 188.031 436.83 217.661C439.18 235.081 439.17 252.461 435.85 269.771C435.48 271.701 435.67 273.731 434.87 275.581L434.85 275.631C433.87 278.191 433.79 280.981 432.79 283.541L432.78 283.581C432.01 285.881 431.67 288.291 430.83 290.571H430.82Z" fill="#D49E63"/>
<path d="M909.62 222.661C910.7 223.911 911.69 225.261 912.87 226.401C919.45 232.741 922.82 240.391 922.68 249.571C922.63 253.071 922.53 256.571 922.7 260.061C923.56 277.291 911.52 291.501 892.22 292.381C881.56 292.861 877.96 295.911 875.71 306.601C872.74 320.701 867.82 334.001 861.14 346.741C855.06 358.321 847.1 368.471 838.47 378.181C837.82 378.911 837.3 379.771 836.72 380.561C836.02 381.421 836.19 382.451 836.19 383.431C836.25 404.381 836.05 425.331 835.35 446.271C835.22 450.031 837.17 454.181 831.18 454.841C829.9 451.201 832.49 448.021 832.32 444.381C831.96 436.751 832.08 429.081 832.29 421.431C832.39 410.041 832.38 398.631 832.32 387.051C829.74 387.561 828.55 389.261 827.08 390.501C808.52 406.061 787.36 416.321 763.73 421.521C762.75 421.731 761.76 421.811 760.75 421.801C759.92 421.781 759.1 421.691 758.3 421.501C749.49 418.491 740.44 416.171 731.91 412.331C700.58 398.221 676.97 375.951 660.73 345.681C652.1 329.601 647.43 312.361 644.67 294.481C644.29 292.001 644.37 289.501 644.37 287.001C644.37 250.701 644.32 214.391 644.43 178.091C644.44 173.761 643.52 169.491 643.92 165.161C644.62 163.221 646.1 161.861 647.43 160.391C652.47 156.921 657.67 158.221 662.72 160.151C668.79 162.461 674.75 165.071 680.91 167.141C701.37 174.011 722.4 178.121 743.87 180.121C762.98 181.901 782.1 181.521 801.23 180.441C814.56 179.691 827.68 177.431 840.85 175.491C851.67 173.901 857.02 176.751 862.53 186.431C867.31 194.831 872.12 203.211 876.52 211.811C878.94 216.541 882.25 218.531 887.65 218.291C893.24 218.041 899 217.311 904.42 219.771C906.23 220.591 908.04 221.421 909.62 222.661Z" fill="#C29672"/>
<path d="M909.62 222.661C909.3 222.751 908.88 223.011 908.67 222.891C900.54 218.431 891.67 219.421 882.96 219.471C880.29 219.481 878.64 218.451 877.38 216.141C871.84 205.941 866.12 195.831 860.63 185.611C856.51 177.931 849.94 175.121 839.92 177.061C810.36 182.791 780.42 184.261 750.54 182.251C720.2 180.211 690.49 174.071 662.44 161.511C657.68 159.381 652.62 158.231 647.73 161.541C646.71 162.321 645.68 163.081 644.77 164.001C644.47 164.301 644.21 164.621 644 164.991C643.8 165.361 643.57 165.711 643.3 166.031C643.17 166.201 643.03 166.351 642.9 166.521C642.36 167.191 641.89 167.921 641.37 168.621C641.07 168.991 640.71 169.281 640.3 169.521C639.1 170.031 638.43 169.511 638.07 168.381C637.85 165.981 636.76 163.981 635.42 162.021C623.3 144.321 615.46 124.881 612.1 103.691C609.39 86.5913 609.91 69.5913 614.31 52.7713C615.78 47.1513 614.77 46.2713 609.12 47.6213C603.59 48.9413 598.4 51.0913 593.21 53.3313C591.46 54.0913 589.59 55.3313 587.65 53.6213C595.4 48.6813 603.66 45.1313 612.98 44.6913C616.43 44.5313 619.28 43.4513 622.05 41.2313C643.83 23.8013 668.62 12.6413 695.66 6.14133C724.02 -0.678669 752.69 -1.46867 781.48 2.05133C807.54 5.23133 832.18 12.9213 854.04 27.9613C873.24 41.1713 887.5 58.5913 897.45 79.6613C908.87 103.871 913.39 129.591 914.3 156.061C915.09 178.381 913.55 200.621 909.62 222.661Z" fill="#5C414B"/>
<path d="M111.05 579.551C113.7 579.981 115.29 576.941 117.97 577.461C118.29 577.101 118.68 576.831 119.02 576.501C121.8 575.821 123.93 573.461 126.97 573.471C127.28 573.111 127.68 572.831 128.03 572.521C129.24 571.771 130.53 571.371 131.97 571.461C135.34 571.281 136.41 574.041 137.74 576.211C148.96 594.521 160.31 612.751 171.49 631.081C176.08 638.611 180.87 646.021 185.53 653.511C188.83 658.811 193.06 662.851 200.14 661.991C203.82 661.541 206.64 659.651 209.37 657.411C218.37 650.011 227.1 642.291 236.03 634.821C238.79 632.511 241.7 630.311 245.48 631.851C249.48 633.481 249.98 637.291 250.3 641.011C250.44 642.671 250.38 644.341 250.38 646.001C250.38 729.231 250.39 812.461 250.35 895.691C250.35 898.601 251.13 901.741 248.82 904.281C201.84 904.301 154.86 904.241 107.88 904.431C103.23 904.451 102.91 902.471 102.92 898.771C103.01 852.291 102.94 805.811 103 759.331C103.03 730.931 94.78 705.661 76.07 683.841C60.22 665.361 45.09 646.261 29.39 627.651C26.76 624.541 27.61 623.061 30.03 620.841C31.84 619.181 33.99 617.751 34.98 615.321C43.35 607.461 54.06 603.791 64.16 599.071C68.62 596.981 73.26 595.271 77.82 593.391C87.18 590.191 95.96 585.641 105.06 581.821C107.01 580.971 109.1 580.461 111.05 579.551Z" fill="#5D5360"/>
<path d="M644.81 164.631C646.97 205.001 645.13 245.411 645.79 285.791C646.08 303.231 650.59 319.771 657.38 335.701C665.93 355.731 678.82 372.721 694.97 387.171C711.81 402.231 731.42 412.421 753.19 418.391C755.15 418.931 756.91 419.731 758.73 420.521C759.08 421.001 759.05 421.451 758.65 421.881C758.24 422.191 757.79 422.411 757.3 422.541C753.74 423.281 750.41 421.991 746.97 421.481C743.16 420.921 739.28 418.281 735.45 422.111C734.14 423.421 731.45 423.101 729.71 422.101C724.71 419.211 719.77 420.501 714.78 421.871C713.48 422.231 712.01 422.801 710.91 421.991C703.68 416.591 694.42 418.211 686.73 414.981C679.56 411.971 672.18 409.351 665.29 405.651C657.8 401.631 650.95 396.711 644.22 391.561C640.77 388.921 636.85 386.801 632.92 384.881C632.61 385.261 632.38 385.671 632.28 386.151C632.05 394.981 632.27 403.791 632.17 412.601C632.15 414.741 632.46 416.941 631.44 418.981C631.09 419.591 630.58 419.781 629.91 419.561C628.66 415.351 629.5 411.041 629.33 406.771C628.98 398.011 629.89 389.231 628.83 380.491C615.98 366.851 605.59 351.591 598.2 334.311C594.15 324.851 591.29 315.031 589.13 305.021C587.35 296.811 582.68 292.371 574.5 292.461C556.18 292.641 544.29 279.461 542.83 262.111C542.09 253.371 542.26 244.591 546.28 236.321C550.7 227.231 557.47 221.321 567.44 219.231C567.89 219.141 568.26 218.691 568.67 218.401C569.14 218.431 569.6 218.521 570.06 218.651C570.51 218.791 570.95 218.951 571.4 219.121C578.08 219.311 584.82 220.271 591.18 217.251C591.6 217.091 592.03 216.951 592.45 216.811C594.54 216.191 596.33 215.041 597.9 213.541C598.23 213.251 598.58 213.011 598.94 212.771C599.67 212.301 600.39 211.821 601.09 211.301C601.44 211.021 601.81 210.771 602.19 210.531C607.74 206.041 612.53 200.801 617.36 195.601C617.58 195.241 617.84 194.901 618.1 194.571C618.34 194.251 618.62 193.941 618.9 193.651C619.03 193.511 619.18 193.371 619.32 193.221C619.58 192.931 619.87 192.661 620.16 192.391C620.29 192.251 620.44 192.121 620.57 191.971C620.83 191.671 621.12 191.391 621.4 191.111C621.54 190.961 621.68 190.821 621.81 190.671C622.08 190.351 622.37 190.061 622.66 189.761C622.81 189.611 622.96 189.471 623.11 189.311C624.49 188.021 626.26 187.101 626.95 185.171C627.24 184.611 627.59 184.091 628 183.611C628.39 183.141 628.82 182.721 629.25 182.301C629.66 181.881 630.08 181.461 630.49 181.051C630.88 180.611 631.29 180.181 631.68 179.741C632.34 178.961 632.87 178.081 633.44 177.231C634.36 176.001 635.38 174.841 636.2 173.541C636.58 172.971 637 172.451 637.46 171.941C638.43 170.691 640.11 170.151 640.75 168.571L640.72 168.611C641.58 167.731 642.06 166.591 642.77 165.611L642.76 165.631C643.12 165.311 643.49 165.011 643.78 164.621L643.77 164.631C644.12 164.191 644.47 164.221 644.81 164.631Z" fill="#B38664"/>
<path d="M636.62 455.091C645.64 462.451 654.14 470.421 662.94 478.041C677.65 490.771 692.21 503.681 706.91 516.421C714.07 522.631 721.1 528.991 728.34 535.111C733.39 539.381 733.54 540.871 728.97 545.481C722.06 552.461 715.11 559.391 708.14 566.311C706.86 567.581 705.76 569.151 703.77 569.441C696.94 577.251 689.44 584.341 681.65 591.201C672.94 598.871 652.76 598.351 644.66 589.111C637.71 581.181 632.22 572.351 626.4 563.711C610.74 540.441 595.21 517.081 579.63 493.761C578.06 491.411 576.32 489.161 574.97 486.691C573.57 484.131 571.57 483.201 568.82 483.491C572.95 481.351 576.47 478.471 579.74 475.131C588.33 466.341 597.05 457.681 605.79 449.041C611.83 443.061 619.02 442.721 625.76 447.951C626.11 448.221 629.3 445.611 630.91 446.561C633.37 448.041 634.76 453.391 636.62 455.091Z" fill="#ECEAEC"/>
<path d="M830.75 454.681C834.03 453.731 836.43 448.331 842.93 445.571C847.17 443.771 851.9 443.301 856.2 446.241C859.76 448.681 863.11 451.351 866.15 454.441C873.96 462.381 881.89 470.191 889.74 478.101C891.83 480.211 893.91 482.291 896.69 483.501C893.64 483.111 891.92 484.621 890.26 487.121C869.79 517.991 849.16 548.751 828.69 579.611C824.21 586.371 819.38 592.701 811.27 595.141C801.4 598.101 792.01 597.251 783.46 590.761C776.26 585.301 770.71 578.131 763.77 572.431C763.77 572.111 763.76 571.801 763.74 571.481C763.38 571.161 763.07 570.791 762.81 570.391C762.69 569.911 762.72 569.281 762.42 568.981C753.32 559.651 744.54 550.001 734.58 541.541C731.42 539.561 734.14 538.041 735.27 537.061C743.82 529.651 752.23 522.081 760.8 514.701C772.91 504.281 784.84 493.661 796.88 483.171C807.29 474.101 817.55 464.851 828.13 455.981C828.89 455.321 829.67 454.681 830.75 454.681Z" fill="#ECEAEC"/>
<path d="M351.95 96.5713C341.03 89.6313 329.17 84.7913 316.82 81.1313C301.87 76.7013 286.73 73.5913 271 73.5713C254.75 73.5513 238.59 73.6313 222.64 77.5513C207.93 81.1713 193.86 86.3913 180.26 92.9613C177.63 94.2313 176.43 97.7413 172.93 97.6213C175.4 95.3313 176.01 92.6413 176.02 89.2013C176.12 60.6513 186.84 37.0513 209.28 19.0113C225.05 6.33134 243.34 0.091333 263.2 0.071333C284 0.051333 302.88 6.86133 319.16 20.3813C335.16 33.6713 344.87 50.6913 349.17 70.7213C350.61 77.4313 351.46 84.5313 350.69 91.5313C350.47 93.5313 350.9 95.0513 351.95 96.5713Z" fill="#DDAE73"/>
<path d="M587.67 53.6013C591.05 53.4213 593.8 51.5213 596.79 50.2713C602.41 47.9213 608.09 45.9013 614.29 45.6513C617.13 45.5313 617.68 46.4113 616.84 49.1213C613.07 61.2413 611.28 73.7113 611.86 86.3513C612.98 110.751 619.19 133.741 632.36 154.561C634.4 157.781 636.38 161.061 638.77 164.011C640.48 166.111 638.74 167.791 638.82 169.651C638.77 169.841 638.73 170.041 638.69 170.241C638.52 170.601 638.29 170.931 638.04 171.231C637.91 171.371 637.77 171.511 637.64 171.661C636.99 172.351 636.27 172.991 635.82 173.851C635.68 174.201 635.49 174.521 635.27 174.821C635.05 175.121 634.81 175.401 634.57 175.671C634.46 175.811 634.33 175.951 634.22 176.091C633.87 176.531 633.58 177.011 633.29 177.491C633.1 177.841 632.9 178.171 632.68 178.501C632.44 178.831 632.17 179.141 631.87 179.431C631.72 179.581 631.57 179.731 631.42 179.881C629.78 181.871 627.24 183.141 626.61 185.941C625.75 187.851 623.68 188.751 622.7 190.561L622.75 190.511C622.46 190.921 622.11 191.261 621.72 191.561L621.76 191.521C621.46 191.901 621.11 192.241 620.74 192.561L620.77 192.531C620.45 192.901 620.11 193.231 619.76 193.561L619.78 193.541C619.46 193.891 619.12 194.231 618.77 194.561L618.78 194.551C613.5 200.611 607.9 206.351 601.73 211.521L601.77 211.491C600.86 212.321 599.75 212.851 598.73 213.521L598.77 213.491C596.96 215.141 594.83 216.311 592.72 217.511L592.78 217.481C585.31 220.261 577.55 219.661 569.83 219.451L569.92 219.531C568.85 218.871 569.84 217.381 568.78 216.721C565.46 207.111 564.6 196.991 563.06 187.061C559.94 166.901 558 146.591 557.32 126.191C556.66 106.231 558.54 86.8113 570.26 69.6313C574.84 62.9113 580.95 57.9513 587.67 53.6013Z" fill="#503441"/>
<path d="M425.72 582.551C431.88 585.301 438.06 588.011 444.21 590.801C445.85 591.551 447.39 592.521 448.98 593.381C446.53 595.531 444.28 593.891 442.05 592.951C428.25 587.131 414.54 581.081 400.79 575.161C395.13 572.721 394.46 572.961 391.17 578.261C375.92 602.881 360.65 627.491 345.58 652.221C344.1 654.641 342.59 657.021 340.66 659.121C334.09 666.221 325.07 667.161 317.4 661.211C308.19 654.071 299.72 646.041 290.68 638.701C288.2 636.681 285.9 633.131 282.17 634.921C278.57 636.651 279.37 640.641 279.37 643.891C279.34 727.791 279.35 811.681 279.31 895.581C279.31 898.511 280.03 901.621 278.02 904.281C272.1 905.051 273.86 899.491 272.11 896.891C271.48 895.961 271.92 894.291 271.92 892.961C271.92 810.701 271.93 728.431 271.88 646.171C271.88 642.461 272.6 638.921 273.51 635.401C274.24 632.551 274.87 629.061 278.48 628.631C282.77 628.111 287.79 625.501 290.68 631.551C291.42 633.101 293.23 633.631 294.72 634.351C296.52 635.231 298.46 636.001 299.62 637.691C305.3 645.981 314.49 650.151 321.73 656.611C328 662.211 333.27 660.891 337.85 653.551C349.88 634.291 362.14 615.171 373.89 595.741C378.39 588.291 383.17 581.031 387.74 573.641C389.82 570.271 392.47 569.311 396.09 570.391C405.37 573.341 413.92 578.041 422.94 581.631C423.84 581.981 424.79 582.241 425.72 582.551Z" fill="#6F6571"/>
<path d="M111.05 579.551C101.12 584.921 90.47 588.681 80.25 593.401C79.58 593.711 78.62 593.401 77.79 593.371C88.19 588.141 98.87 583.561 109.72 579.361C110.17 579.421 110.61 579.481 111.05 579.551Z" fill="#6F6571"/>
<path d="M358.97 100.581C355.8 100.661 353.69 98.9113 351.92 96.5413C354.67 97.1813 356.89 98.7513 358.97 100.581Z" fill="#DDAE73"/>
<path d="M568.76 216.731C569.91 217.351 569.73 218.521 569.9 219.541C569.48 219.151 569.07 218.761 568.65 218.381C568.69 217.831 568.73 217.281 568.76 216.731Z" fill="#B38664"/>
<path d="M278.01 904.271C277.98 868.971 277.92 833.671 277.91 798.361C277.89 746.241 277.9 694.121 277.92 641.991C277.92 640.021 277.67 638.031 278.58 636.101C280.36 632.311 283.21 631.131 286.55 633.681C292.6 638.301 298.34 643.321 304.17 648.221C309.11 652.381 313.73 656.991 318.98 660.721C325.45 665.321 335.54 665.741 342 655.201C351.8 639.221 361.61 623.241 371.46 607.291C378.17 596.421 385 585.621 391.69 574.741C393.58 571.661 395.3 571.041 398.97 572.741C414.36 579.831 429.98 586.431 445.54 593.131C446.54 593.561 447.82 593.321 448.98 593.381C462.91 599.301 477.23 604.441 489.69 613.341C490.48 613.911 491.14 614.661 491.86 615.331C492.89 616.181 493.89 617.051 494.85 617.981C501.81 624.751 501.78 624.711 495.39 632.241C480.42 649.881 465.73 667.761 450.94 685.551C438.65 700.341 430.26 716.961 427.05 735.951C425.69 743.961 425.34 752.171 425.32 760.301C425.2 805.591 425.28 850.881 425.23 896.171C425.23 898.921 425.95 901.891 423.75 904.281C375.17 904.281 326.59 904.271 278.01 904.271Z" fill="#5D5360"/>
<path d="M334.88 510.491C334.88 518.741 334.86 526.981 334.9 535.231C334.91 536.931 334.27 539.051 336.91 539.581C314.96 561.611 293.07 583.691 271.04 605.641C265.69 610.971 260.66 610.661 254.98 604.991C235.18 585.261 215.44 565.481 195.69 545.701C193.7 543.711 191.76 541.651 189.8 539.621C191.06 539.341 191.97 538.701 191.9 537.281C191.49 528.011 192.97 518.681 190.97 509.471C193.64 508.931 195.85 510.391 198.09 511.311C222.06 521.201 247.09 525.291 272.84 523.911C291.02 522.941 308.8 519.181 325.85 512.431C328.71 511.291 331.51 509.421 334.88 510.491Z" fill="#F9D6A4"/>
<path d="M423.75 904.281C423.78 855.871 423.94 807.471 423.81 759.061C423.73 728.541 433.66 702.181 454.14 679.391C466.84 665.261 478.39 650.091 490.48 635.411C492.8 632.601 495.05 629.691 497.68 627.201C500.01 625.001 499.65 623.561 497.52 621.551C495.5 619.631 493.11 617.981 491.85 615.341C497.09 617.591 500.35 622.191 504 626.161C514.34 637.421 521.15 650.531 524.06 665.701C527.71 684.691 525.74 703.711 525.01 722.731C524.84 727.211 523.91 731.691 524.06 736.141C524.8 758.121 522.4 779.991 521.62 801.901C520.67 828.781 520.55 855.741 517.71 882.511C516.47 894.201 502.73 906.321 492.09 904.461C484.1 904.421 476.1 904.401 468.11 904.321C466.23 904.301 463.83 904.931 463.86 901.691C463.89 898.631 465.91 898.321 468.29 898.331C474.29 898.361 480.31 897.991 486.27 898.411C499.92 899.361 511.78 887.281 510.87 874.031C510.51 868.891 510.22 863.631 510.92 858.561C513.41 840.401 511.15 821.981 513.3 804.001C515.02 789.671 513.12 775.421 515 761.361C517.34 743.791 515.54 726.141 517.24 708.711C518.09 699.951 519.11 691.211 518.67 682.491C517.89 667.151 513.54 652.741 504.81 639.861C503.42 637.801 502 635.711 501.02 633.451C500.02 631.151 499.03 631.351 498.04 633.141C495.83 637.121 492.07 640.041 489.7 643.381C485.82 648.861 481.47 653.901 477.02 658.761C471.46 664.851 466.65 671.521 461.24 677.711C455.53 684.241 450.65 691.491 445.35 698.381C439.75 705.661 435.42 713.711 433.34 722.561C432.15 727.601 428.57 732.431 430.74 738.121C431.05 738.941 430.93 740.331 430.41 741.001C426.8 745.701 427.88 751.141 427.88 756.361C427.83 803.001 427.89 849.631 427.77 896.271C427.76 899.341 429.17 903.691 423.75 904.281Z" fill="#6F6571"/>
<path d="M248.8 904.271C248.84 870.791 248.89 837.311 248.9 803.841C248.92 750.871 248.9 697.911 248.9 644.941C248.9 643.771 248.94 642.611 248.89 641.441C248.74 638.091 248.74 634.341 245.17 632.831C241.55 631.301 239.07 634.051 236.49 636.281C227.36 644.211 218.23 652.171 208.84 659.781C200.51 666.541 191.1 664.881 185.03 655.481C176.93 642.941 169.26 630.111 161.42 617.401C152.79 603.421 144.16 589.441 135.55 575.451C134.59 573.881 133.73 572.251 131.95 571.441C134.61 567.691 137.32 569.831 138.64 572.181C142.91 579.821 148.57 586.561 152.1 594.741C154.69 600.721 159.29 605.801 162.54 611.541C170.19 625.081 179.81 637.381 186.94 651.251C188.86 654.981 192.33 657.511 195.88 659.741C197.42 660.711 199.35 660.981 200.59 659.891C203.84 657.051 209.1 656.721 210.58 651.561C211.03 649.991 213.03 649.131 214.72 648.241C218.3 646.351 221.14 643.271 224.21 640.811C230.76 635.551 235.9 626.821 246.53 628.351C249.34 628.751 251 629.561 252.08 632.311C253.87 636.851 254.91 641.441 254.91 646.311C254.9 728.361 254.87 810.411 254.99 892.461C255 896.111 253.7 899.231 252.86 902.571C252.25 905.001 250.35 904.171 248.8 904.271Z" fill="#6F6571"/>
<path d="M263.24 617.201C257.98 616.691 253.21 614.251 249.22 610.251C229.2 590.241 209.16 570.241 189.2 550.171C187.23 548.191 185.64 545.811 184.01 543.521C183.24 542.441 182.58 541.121 184.09 540.011C185.38 539.071 186.68 538.471 188.02 540.041C188.77 540.921 189.66 541.701 190.48 542.521C211.56 563.601 232.63 584.681 253.71 605.751C260.41 612.441 266.3 612.511 273.04 605.791C294.03 584.861 314.97 563.881 335.93 542.921C336.87 541.981 337.79 541.001 338.83 540.171C340.21 539.081 341.37 540.201 342.45 540.841C344.05 541.781 342.95 542.741 342.32 543.701C340.78 546.061 339.38 548.501 337.35 550.521C317.9 569.931 298.52 589.401 279.02 608.771C274.75 613.011 269.96 616.611 263.24 617.201Z" fill="#6F6571"/>
<path d="M31.05 905.281C28.96 905.691 27.34 904.891 26 903.351C28.03 903.071 29.59 904.041 31.05 905.281Z" fill="#C7C3C7"/>
<path d="M128.02 572.501C127.67 572.821 127.31 573.141 126.96 573.451C127.31 573.141 127.67 572.821 128.02 572.501Z" fill="#6F6571"/>
<path d="M119.01 576.491C118.66 576.811 118.31 577.131 117.96 577.451C118.31 577.131 118.66 576.811 119.01 576.491Z" fill="#6F6571"/>
<path d="M760.86 569.351C762.64 577.931 763.7 586.431 757.13 593.681C755.71 595.251 754.85 596.751 754.98 598.971C756.67 628.211 758.25 657.451 759.92 686.691C761.87 720.741 763.75 754.801 765.92 788.841C768.15 823.881 770.31 858.921 772 893.981C772.54 905.151 772.78 905.141 761.33 905.141C740.34 905.141 719.35 905.031 698.36 905.231C693.98 905.271 692.49 904.131 692.87 899.601C694.77 877.221 695.63 854.761 696.96 832.341C699.06 797.131 701.13 761.921 703.07 726.701C704.31 704.281 705.83 681.871 706.97 659.431C707.97 639.831 709.4 620.251 710.71 600.661C710.91 597.681 710.2 595.421 708.09 593.061C702.16 586.441 703.21 578.321 704.09 570.351C704.53 569.471 705.09 569.021 706 569.791C707.09 573.821 707 577.971 707.12 582.091C707.39 591.381 712.83 596.951 721.95 597.041C729.25 597.111 736.56 597.111 743.86 597.041C752.08 596.961 758.82 590.341 759.3 582.021C759.52 578.221 758.9 574.381 759.82 570.611C760.03 570.081 760.38 569.661 760.86 569.351Z" fill="#5D5360"/>
<path d="M705.63 569.371C705.12 569.701 704.6 570.031 704.09 570.361C703.92 570.071 703.81 569.771 703.75 569.441C712.05 561.051 720.24 552.531 728.73 544.331C731.69 541.471 731.95 539.761 728.7 536.941C698.2 510.511 667.86 483.901 637.34 457.481C632.77 453.521 630.2 449.421 630.66 443.031C631.23 435.261 630.72 427.411 630.68 419.591L630.85 419.431C631.36 419.151 631.88 419.131 632.42 419.341C650.29 431.601 669.62 440.761 690.68 445.981C710.69 450.941 730.96 452.601 751.53 450.171C773.08 447.621 793.53 441.621 812.79 431.621C817.96 428.941 823.01 426.031 827.87 422.801C829.61 421.651 831.22 419.921 833.68 420.481C833.68 428.551 833.55 436.631 833.75 444.701C833.84 448.451 833.44 451.851 830.75 454.661C821.23 463.161 811.77 471.721 802.19 480.141C784.87 495.351 767.48 510.481 750.11 525.641C745.74 529.461 741.23 533.131 737.02 537.121C735.89 538.191 732.81 538.661 734.58 541.511C734.55 541.811 734.5 542.121 734.43 542.411C734.12 542.931 733.65 543.231 733.13 543.491C732.82 543.671 732.5 543.841 732.19 544.011C731.92 544.211 731.64 544.411 731.37 544.621C731.25 544.731 731.12 544.841 731 544.951C730.78 545.191 730.53 545.411 730.29 545.631C730.3 545.641 729.94 545.961 729.95 545.971C729.74 546.211 729.5 546.431 729.27 546.651C729.28 546.661 728.92 546.981 728.93 546.991C728.72 547.231 728.49 547.451 728.26 547.661C728.27 547.671 727.92 547.991 727.93 547.991C727.72 548.231 727.49 548.441 727.26 548.661C727.27 548.671 726.92 548.991 726.93 548.991C726.72 549.231 726.49 549.441 726.26 549.661C726.27 549.671 725.92 549.981 725.93 549.991C725.72 550.231 725.49 550.441 725.26 550.661C725.27 550.671 724.92 550.981 724.93 550.991C724.72 551.231 724.49 551.441 724.26 551.661C724.27 551.671 723.92 551.981 723.93 551.991C723.72 552.231 723.49 552.441 723.26 552.661C723.27 552.671 722.92 552.981 722.93 552.991C722.72 553.231 722.49 553.441 722.26 553.661C722.27 553.671 721.92 553.981 721.93 553.991C721.72 554.231 721.49 554.441 721.26 554.661C721.27 554.671 720.92 554.981 720.93 554.991C720.72 555.231 720.49 555.441 720.26 555.661C720.27 555.671 719.92 555.981 719.93 555.991C719.72 556.231 719.49 556.441 719.26 556.661C719.27 556.671 718.92 556.981 718.93 556.991C718.72 557.231 718.49 557.441 718.26 557.661C718.27 557.671 717.92 557.981 717.93 557.991C717.72 558.231 717.49 558.441 717.26 558.661C717.27 558.671 716.92 558.981 716.93 558.991C716.72 559.231 716.49 559.441 716.26 559.661C716.27 559.671 715.92 559.981 715.93 559.991C715.72 560.231 715.49 560.441 715.26 560.661C715.27 560.671 714.92 560.981 714.93 560.991C714.72 561.231 714.49 561.441 714.26 561.661C714.27 561.671 713.92 561.981 713.93 561.991C713.72 562.231 713.49 562.441 713.26 562.661C713.27 562.671 712.92 562.981 712.93 562.991C712.72 563.221 712.49 563.441 712.26 563.661C712.27 563.671 711.92 563.981 711.93 563.991C711.72 564.221 711.5 564.441 711.27 564.651C711.28 564.661 710.93 564.971 710.94 564.981C710.73 565.211 710.51 565.431 710.28 565.641C710.29 565.651 709.94 565.961 709.95 565.971C709.74 566.201 709.52 566.411 709.29 566.621C709.3 566.631 708.95 566.941 708.96 566.951C708.75 567.181 708.53 567.391 708.3 567.601C708.31 567.611 707.96 567.921 707.97 567.931C707.76 568.161 707.53 568.381 707.3 568.591C707.31 568.601 706.94 568.901 706.94 568.901C706.7 569.121 706.42 569.281 706.11 569.381C706.11 569.391 705.63 569.371 705.63 569.371Z" fill="#B38664"/>
<path d="M623.36 715.421C612.55 715.421 601.73 715.471 590.92 715.401C584.89 715.361 579.48 713.661 575.62 708.641C570.45 701.931 571.76 682.961 577.71 676.991C581.87 672.821 587.04 671.461 592.67 671.451C612.47 671.411 632.27 671.471 652.07 671.421C671.34 671.371 676.22 682.891 674.46 698.281C673.03 710.791 666.71 715.411 653.81 715.411C643.65 715.421 633.5 715.421 623.36 715.421Z" fill="#ECEAEC"/>
<path d="M731.62 543.331C732.28 542.171 733.42 542.501 734.42 542.431C734.57 542.721 734.73 543.021 734.88 543.311C734.71 543.501 734.54 543.701 734.37 543.891C733.33 544.321 732.38 544.321 731.62 543.331Z" fill="#5D5360"/>
<path d="M734.89 543.311C735.23 543.641 735.57 543.981 735.9 544.311C735.71 544.431 735.51 544.541 735.32 544.661C734.88 544.471 734.63 544.141 734.59 543.661L734.89 543.311Z" fill="#5D5360"/>
<path d="M735.9 544.311C736.23 544.641 736.57 544.971 736.9 545.311C736.7 545.421 736.5 545.541 736.3 545.651C735.85 545.451 735.61 545.101 735.6 544.601L735.9 544.311Z" fill="#5D5360"/>
<path d="M736.9 545.311C737.23 545.641 737.57 545.971 737.9 546.311C737.7 546.431 737.5 546.541 737.3 546.661C736.85 546.461 736.61 546.111 736.6 545.611L736.9 545.311Z" fill="#5D5360"/>
<path d="M737.91 546.311C738.24 546.641 738.58 546.981 738.91 547.311C738.71 547.431 738.51 547.541 738.31 547.661C737.86 547.451 737.63 547.101 737.61 546.611L737.91 546.311Z" fill="#5D5360"/>
<path d="M738.9 547.311C739.23 547.641 739.57 547.981 739.9 548.311C739.7 548.431 739.5 548.541 739.3 548.661C738.85 548.451 738.61 548.111 738.6 547.611L738.9 547.311Z" fill="#5D5360"/>
<path d="M739.9 548.311C740.23 548.641 740.57 548.981 740.9 549.311C740.7 549.431 740.5 549.541 740.3 549.661C739.85 549.451 739.61 549.111 739.6 548.611L739.9 548.311Z" fill="#5D5360"/>
<path d="M740.9 549.311C741.23 549.641 741.57 549.981 741.9 550.311C741.7 550.431 741.5 550.541 741.3 550.661C740.85 550.451 740.62 550.101 740.6 549.611L740.9 549.311Z" fill="#5D5360"/>
<path d="M741.9 550.311C742.23 550.641 742.57 550.981 742.9 551.311C742.7 551.431 742.5 551.541 742.3 551.661C741.85 551.461 741.61 551.111 741.6 550.611L741.9 550.311Z" fill="#5D5360"/>
<path d="M742.9 551.311C743.23 551.641 743.57 551.981 743.9 552.311C743.7 552.431 743.5 552.541 743.3 552.661C742.85 552.451 742.62 552.101 742.6 551.611L742.9 551.311Z" fill="#5D5360"/>
<path d="M743.9 552.311C744.23 552.641 744.57 552.981 744.9 553.311C744.7 553.421 744.5 553.541 744.3 553.651C743.85 553.441 743.62 553.091 743.6 552.601L743.9 552.311Z" fill="#5D5360"/>
<path d="M744.9 553.311C745.23 553.641 745.56 553.981 745.9 554.311C745.7 554.421 745.5 554.541 745.3 554.651C744.85 554.441 744.62 554.091 744.61 553.601L744.9 553.311Z" fill="#5D5360"/>
<path d="M745.9 554.311C746.23 554.641 746.57 554.981 746.9 555.311C746.7 555.421 746.5 555.541 746.3 555.651C745.85 555.451 745.62 555.091 745.61 554.601L745.9 554.311Z" fill="#5D5360"/>
<path d="M746.9 555.311C747.23 555.641 747.57 555.981 747.9 556.311C747.7 556.421 747.5 556.531 747.3 556.651C746.85 556.441 746.62 556.101 746.61 555.601L746.9 555.311Z" fill="#5D5360"/>
<path d="M747.89 556.311C748.22 556.641 748.56 556.981 748.89 557.311C748.69 557.421 748.49 557.531 748.29 557.651C747.84 557.441 747.61 557.101 747.6 556.601L747.89 556.311Z" fill="#5D5360"/>
<path d="M748.89 557.311C749.22 557.641 749.56 557.981 749.89 558.311C749.69 558.421 749.49 558.531 749.29 558.651C748.84 558.451 748.62 558.091 748.6 557.601L748.89 557.311Z" fill="#5D5360"/>
<path d="M749.89 558.311C750.22 558.641 750.56 558.981 750.89 559.311C750.69 559.421 750.49 559.531 750.29 559.651C749.84 559.441 749.61 559.091 749.6 558.601L749.89 558.311Z" fill="#5D5360"/>
<path d="M750.89 559.311C751.22 559.641 751.56 559.981 751.89 560.311C751.69 560.421 751.49 560.531 751.29 560.651C750.85 560.441 750.61 560.101 750.6 559.601L750.89 559.311Z" fill="#5D5360"/>
<path d="M751.89 560.311C752.22 560.641 752.55 560.981 752.89 561.311C752.69 561.421 752.49 561.531 752.29 561.641C751.84 561.441 751.62 561.081 751.6 560.591L751.89 560.311Z" fill="#5D5360"/>
<path d="M752.89 561.311C753.22 561.641 753.56 561.981 753.89 562.311C753.69 562.421 753.49 562.531 753.29 562.641C752.85 562.431 752.61 562.091 752.6 561.591L752.89 561.311Z" fill="#5D5360"/>
<path d="M753.89 562.311C754.22 562.641 754.56 562.981 754.89 563.311C754.69 563.421 754.49 563.531 754.29 563.651C753.84 563.451 753.62 563.091 753.6 562.601L753.89 562.311Z" fill="#5D5360"/>
<path d="M754.89 563.311C755.22 563.641 755.56 563.981 755.89 564.311C755.69 564.421 755.49 564.531 755.29 564.651C754.84 564.451 754.61 564.101 754.6 563.601L754.89 563.311Z" fill="#5D5360"/>
<path d="M755.89 564.311C756.22 564.641 756.56 564.981 756.89 565.311C756.69 565.421 756.49 565.541 756.29 565.651C755.85 565.441 755.6 565.101 755.59 564.601L755.89 564.311Z" fill="#5D5360"/>
<path d="M756.89 565.311C757.22 565.641 757.56 565.971 757.89 566.311C757.69 566.421 757.49 566.541 757.29 566.651C756.84 566.441 756.6 566.101 756.59 565.601L756.89 565.311Z" fill="#5D5360"/>
<path d="M757.89 566.301C758.22 566.631 758.56 566.961 758.89 567.301C758.69 567.421 758.49 567.531 758.29 567.651C757.84 567.451 757.61 567.101 757.59 566.601L757.89 566.301Z" fill="#5D5360"/>
<path d="M759.89 568.301C760.21 568.651 760.53 569.001 760.86 569.351L760.53 569.621C760.05 569.571 759.73 569.311 759.55 568.871C759.66 568.681 759.77 568.491 759.89 568.301Z" fill="#5D5360"/>
<path d="M762.8 570.381C763.11 570.741 763.42 571.111 763.73 571.471C763.42 571.101 763.11 570.741 762.8 570.381Z" fill="#DAD8DB"/>
<path d="M758.9 567.301C759.23 567.631 759.56 567.961 759.89 568.301L759.59 568.601C758.86 568.661 758.53 568.331 758.59 567.601L758.9 567.301Z" fill="#5D5360"/>
<path d="M334.88 510.491C308.85 521.471 281.74 527.101 253.5 525.341C235.14 524.201 217.07 520.831 199.99 513.481C196.97 512.181 193.54 511.771 190.97 509.461C190.96 500.481 190.91 491.501 190.95 482.521C190.97 477.421 191.45 477.031 196.01 479.571C206.63 485.491 218.17 488.981 229.75 492.121C240.4 495.011 251.62 496.361 262.49 496.181C286.93 495.771 310.78 491.511 332.49 479.151C333.69 478.471 335.76 476.221 335.78 479.731C335.84 489.521 336.37 499.331 335.49 509.111C335.44 509.591 335.09 510.031 334.88 510.491Z" fill="#EFC790"/>
<path d="M833.68 420.501C819.52 430.761 804 438.511 787.48 443.951C765.45 451.201 742.59 454.351 719.5 452.301C693.13 449.961 668.02 442.691 645.13 428.781C640.48 425.951 635.41 423.781 631.77 419.521C630.99 407.531 630.93 395.531 631.79 383.541L631.78 383.561C634.8 383.051 635.43 386.041 637.19 387.341C650.85 397.461 664.93 406.741 680.82 413.191C690.72 417.211 701.12 420.091 711.37 421.471C722.65 422.991 734.42 425.071 745.98 421.981C749.87 420.941 753.89 423.051 757.76 421.521C758.08 421.531 758.41 421.531 758.73 421.511C759.22 420.821 760.23 421.181 760.74 420.511C772.9 418.491 784.42 414.551 795.54 409.291C809.27 402.791 821.44 393.961 833.69 383.221C833.68 396.411 833.68 408.461 833.68 420.501Z" fill="#956D50"/>
<path d="M644.81 164.631C644.46 164.621 644.1 164.611 643.75 164.601C644.62 162.981 645.79 161.761 647.74 161.551C647.2 162.981 646.11 163.901 644.81 164.631Z" fill="#B38664"/>
<path d="M760.73 420.521C760.3 421.321 759.55 421.501 758.72 421.521C758.72 421.181 758.72 420.851 758.72 420.511C759.4 420.521 760.06 420.521 760.73 420.521Z" fill="#B38664"/>
<path d="M640.73 168.541C640.75 170.631 639.36 171.691 637.79 172.631C637.65 172.491 637.51 172.351 637.36 172.221C637.21 171.601 637.33 171.061 637.86 170.651L637.82 170.681C638.08 170.261 638.47 169.971 638.82 169.641V169.661C639.45 169.281 640.09 168.911 640.73 168.541Z" fill="#B38664"/>
<path d="M642.76 165.581C642.77 167.051 642.11 168.071 640.71 168.581C640.82 167.191 641.46 166.171 642.76 165.581Z" fill="#B38664"/>
<path d="M643.76 164.591C643.42 164.931 643.08 165.261 642.74 165.601C643.08 165.261 643.42 164.931 643.76 164.591Z" fill="#B38664"/>
<path d="M175.41 788.391C166.76 788.391 158.11 788.431 149.46 788.381C139.19 788.321 132.01 781.101 131.97 770.781C131.96 766.801 131.5 762.661 132.42 758.881C134.92 748.691 140.42 744.941 152.24 744.551C167.69 744.041 183.18 744.031 198.63 744.551C210.5 744.951 216.61 748.411 219.4 759.961C221.47 768.521 219.6 781.861 210.84 786.121C207.77 787.611 204.69 788.401 201.33 788.401C192.71 788.391 184.06 788.391 175.41 788.391Z" fill="#6F6571"/>
<path d="M757.75 421.531C744.77 423.871 731.85 425.621 718.56 423.431C708.03 421.701 697.59 420.001 687.37 416.711C676.95 413.361 667.22 408.691 657.87 403.171C648.45 397.611 639.71 391.111 631.77 383.551C632.64 382.321 633.7 382.391 634.77 383.211C644.63 390.741 654.67 398.011 665.36 404.351C671.91 408.231 679.89 408.981 685.9 413.951C689.56 411.891 692.53 417.671 696.25 414.861C699.73 419.071 706.36 414.651 709.59 419.781C710.7 421.551 712.35 421.421 714.4 420.771C719.49 419.141 724.69 417.211 729.87 420.961C731.36 422.041 733.98 422.231 735.1 421.091C739.51 416.631 744.01 419.801 748.39 420.551C751.52 421.101 754.59 421.681 757.75 421.531Z" fill="#B38664"/>
<path d="M664.2 360.331C655.78 352.351 652.82 342.741 648.92 333.741C647.74 331.021 646.34 328.381 645.35 325.581C644.76 323.921 643.79 321.661 646.1 320.921C648.24 320.241 648.36 322.491 648.89 324.101C651.84 333.031 655.14 341.791 660.22 349.841C662.02 352.691 662.7 356.251 664.2 360.331Z" fill="#B38664"/>
<path d="M569.82 219.461C577.47 218.801 585.12 218.151 592.77 217.491C585.42 221.711 577.69 221.461 569.82 219.461Z" fill="#B38664"/>
<path d="M642.92 295.271C642.71 296.261 642.57 297.421 642.21 298.491C641.97 299.221 641.58 300.231 640.55 299.921C640.04 299.771 639.5 299.061 639.36 298.501C639.04 297.241 638.74 295.901 638.83 294.621C638.95 292.761 637.91 289.471 640.15 289.471C642.77 289.471 642.54 292.851 642.92 295.271Z" fill="#B38664"/>
<path d="M601.89 329.711C601.4 326.541 597.38 325.161 598.44 321.371C598.99 319.421 597.51 318.731 597 317.451C596.68 316.661 596.62 315.611 597.43 315.191C598.62 314.571 599.31 315.571 599.59 316.531C600.82 320.721 601.96 324.931 603.13 329.141C602.72 329.331 602.31 329.521 601.89 329.711Z" fill="#B38664"/>
<path d="M722.97 412.991C717.2 410.661 711.45 408.271 707.1 403.531C713.04 405.591 718.16 409.031 722.97 412.991Z" fill="#B38664"/>
<path d="M631.79 383.541C631.78 395.531 631.78 407.531 631.77 419.521C631.46 419.511 631.15 419.491 630.84 419.451C630.81 408.861 630.78 398.271 630.78 387.681C630.79 386.241 630.37 384.651 631.79 383.541Z" fill="#B38664"/>
<path d="M601.71 211.541C607.09 205.581 612.66 199.811 618.76 194.571C614.32 201.481 608.75 207.251 601.71 211.541Z" fill="#B38664"/>
<path d="M643.06 311.211C641.15 308.821 639.97 306.741 641.38 304.211C641.67 303.691 642.55 304.021 643.09 304.481C645.46 306.521 645.11 308.651 643.06 311.211Z" fill="#B38664"/>
<path d="M671.44 370.131C673.22 371.461 675.08 372.711 676.76 374.161C677.67 374.941 678.22 376.221 676.96 377.121C675.97 377.831 675.17 377.071 674.57 376.141C673.37 374.281 672.11 372.461 670.88 370.621C671.07 370.461 671.25 370.291 671.44 370.131Z" fill="#B38664"/>
<path d="M578.64 291.051C577.94 289.011 576.78 286.931 579.28 285.751C580.18 285.331 581.57 285.571 581.92 286.511C582.97 289.351 579.6 289.351 578.64 291.051Z" fill="#B38664"/>
<path d="M645.19 319.241C643.42 317.311 642.3 315.651 643.1 313.541C643.5 312.481 644.45 313.011 645.15 313.521C647.44 315.181 646.09 316.961 645.19 319.241Z" fill="#B38664"/>
<path d="M591.44 292.971C591.41 293.861 591.09 294.391 590.31 294.381C588.99 294.371 588.18 293.651 587.98 292.361C587.83 291.391 588.36 290.741 589.31 290.761C590.77 290.791 590.9 292.181 591.44 292.971Z" fill="#B38664"/>
<path d="M725.83 414.801C729.15 414.371 731.2 415.251 733.52 417.021C730.28 418.081 728.51 416.311 725.83 414.801Z" fill="#B38664"/>
<path d="M595.61 300.411C595.69 301.811 595.19 302.411 594.25 302.401C593.21 302.391 592.22 301.961 592.44 300.711C592.63 299.651 592.94 298.171 594.35 298.391C594.95 298.481 595.33 299.911 595.61 300.411Z" fill="#B38664"/>
<path d="M692.7 392.161C695.68 393.631 697.03 395.091 698.7 397.691C695.7 396.561 693.66 395.881 692.7 392.161Z" fill="#B38664"/>
<path d="M622.69 190.571C622.79 188.341 625.06 187.451 625.77 185.601C626.18 185.101 626.54 184.541 627.23 184.361C627.43 184.451 627.62 184.551 627.82 184.651C628.14 188.371 624.82 188.951 622.69 190.571Z" fill="#B38664"/>
<path d="M596.01 306.951C597.13 307.191 597.63 307.981 597.62 309.031C597.61 309.961 597.01 310.511 596.05 310.391C594.98 310.271 594.17 309.731 594.47 308.521C594.65 307.781 594.97 306.951 596.01 306.951Z" fill="#B38664"/>
<path d="M592.7 217.531C594.18 215.381 596.34 214.261 598.75 213.511C597.53 216.031 595.42 217.231 592.7 217.531Z" fill="#B38664"/>
<path d="M617.17 356.261C618.65 356.531 619.44 357.321 619.36 358.801C619.35 358.951 618.81 359.231 618.6 359.171C617.14 358.741 616.56 357.831 617.17 356.261Z" fill="#B38664"/>
<path d="M567.19 285.171C566.99 285.881 566.49 286.271 565.78 286.171C564.96 286.051 564.79 285.361 565.02 284.711C565.15 284.351 565.67 283.901 566 283.911C566.66 283.951 567.13 284.431 567.19 285.171Z" fill="#B38664"/>
<path d="M623.83 364.281C624.47 364.781 625.29 365.231 625.14 366.181C625.09 366.501 624.37 367.021 624.1 366.941C623.22 366.681 622.84 365.911 622.89 365.011C622.91 364.461 623.17 364.071 623.83 364.281Z" fill="#B38664"/>
<path d="M636.81 173.631C636.7 175.621 635.34 176.691 633.84 177.671C633.69 177.541 633.53 177.411 633.38 177.281C633.29 176.661 633.32 176.081 633.86 175.641L633.82 175.671C634.1 175.271 634.45 174.941 634.83 174.631L634.82 174.651C635.18 174.101 635.54 173.551 636.22 173.361C636.41 173.451 636.61 173.541 636.81 173.631Z" fill="#B38664"/>
<path d="M615.17 352.411C614.9 352.711 614.73 352.891 614.56 353.081C614.2 352.611 613.73 352.181 613.5 351.651C613.25 351.081 613.66 350.631 614.19 350.981C614.65 351.301 614.88 351.971 615.17 352.411Z" fill="#B38664"/>
<path d="M633.83 177.661C633.73 179.051 633.08 180.061 631.77 180.611C631.63 180.471 631.49 180.341 631.35 180.201C631.2 179.581 631.33 179.051 631.82 178.621L631.8 178.641C632.09 178.261 632.48 177.971 632.78 177.601C633.1 177.161 633.43 177.131 633.77 177.591L633.83 177.661Z" fill="#B38664"/>
<path d="M550.47 267.821C550.2 267.461 549.91 267.251 549.9 267.031C549.86 266.481 549.6 265.801 550.41 265.561C550.45 265.551 550.75 266.081 550.74 266.361C550.74 266.791 550.59 267.241 550.47 267.821Z" fill="#B38664"/>
<path d="M550.12 243.311C550.41 243.671 550.68 243.851 550.7 244.051C550.77 244.641 550.95 245.311 550.23 245.701C550.1 245.421 549.87 245.151 549.86 244.871C549.86 244.421 550 243.971 550.12 243.311Z" fill="#B38664"/>
<path d="M598.71 213.541C599.37 212.331 600.28 211.501 601.75 211.511C601.25 212.941 600.22 213.611 598.71 213.541Z" fill="#B38664"/>
<path d="M665.48 362.071C665.7 362.331 665.9 362.561 666.1 362.791C665.88 362.931 665.67 363.101 665.43 363.181C665.35 363.211 665.07 362.961 665.09 362.891C665.17 362.631 665.32 362.401 665.48 362.071Z" fill="#B38664"/>
<path d="M606.53 337.721C606.41 337.751 606.2 337.851 606.17 337.811C606.08 337.701 606.07 337.541 606.03 337.401C606.16 337.371 606.36 337.271 606.39 337.311C606.47 337.411 606.48 337.581 606.53 337.721Z" fill="#B38664"/>
<path d="M688.75 389.531L689.17 389.761L688.98 389.941L688.75 389.531Z" fill="#B38664"/>
<path d="M688.75 389.531L688.34 389.301L688.52 389.111L688.75 389.531Z" fill="#B38664"/>
<path d="M663.76 359.541L664.18 359.771L663.99 359.951L663.76 359.541Z" fill="#B38664"/>
<path d="M637.78 172.631C637.45 172.961 637.13 173.301 636.8 173.631L636.71 173.561C636.5 172.721 636.83 172.391 637.67 172.541C637.68 172.531 637.78 172.631 637.78 172.631Z" fill="#B38664"/>
<path d="M631.77 180.611C631.44 180.941 631.11 181.281 630.78 181.611C630.71 181.411 630.65 181.201 630.58 181.001C630.8 180.591 631.15 180.421 631.61 180.461C631.61 180.461 631.77 180.611 631.77 180.611Z" fill="#B38664"/>
<path d="M630.78 181.611C630.45 181.951 630.12 182.281 629.79 182.621C629.72 182.411 629.66 182.201 629.59 181.991C629.83 181.581 630.19 181.411 630.66 181.481L630.78 181.611Z" fill="#B38664"/>
<path d="M618.76 194.591C619.1 194.251 619.43 193.911 619.77 193.571C619.43 193.911 619.09 194.251 618.76 194.591Z" fill="#B38664"/>
<path d="M619.75 193.591C620.09 193.251 620.43 192.901 620.76 192.561C620.43 192.901 620.09 193.251 619.75 193.591Z" fill="#B38664"/>
<path d="M620.74 192.581C621.08 192.231 621.42 191.881 621.76 191.541C621.42 191.891 621.08 192.241 620.74 192.581Z" fill="#B38664"/>
<path d="M621.72 191.581C622.06 191.231 622.4 190.881 622.75 190.531C622.4 190.881 622.06 191.231 621.72 191.581Z" fill="#B38664"/>
<path d="M628.81 183.621C628.48 183.961 628.15 184.301 627.83 184.631L627.76 184.571C627.59 184.091 627.72 183.711 628.14 183.421C628.36 183.501 628.58 183.561 628.81 183.621Z" fill="#B38664"/>
<path d="M629.79 182.621C629.46 182.951 629.14 183.291 628.81 183.621L628.72 183.541C628.51 182.691 628.86 182.371 629.69 182.511L629.79 182.621Z" fill="#B38664"/>
<path d="M629.69 182.521C629.37 182.861 629.04 183.211 628.72 183.551C628.4 183.891 628.08 184.241 627.75 184.581C627.09 184.921 626.43 185.261 625.77 185.601C626.54 182.201 629.31 180.531 631.81 178.631C631.74 179.241 631.67 179.861 631.6 180.471C631.28 180.811 630.97 181.151 630.65 181.491C630.34 181.831 630.01 182.181 629.69 182.521Z" fill="#5C414B"/>
<path d="M637.68 172.531C637.36 172.871 637.04 173.211 636.72 173.551C636.08 173.911 635.45 174.281 634.81 174.651C634.83 172.561 636.14 171.441 637.86 170.651C637.8 171.271 637.74 171.901 637.68 172.531Z" fill="#5C414B"/>
<path d="M633.76 177.591L633.27 177.611L632.78 177.601C632.79 176.751 632.97 176.001 633.86 175.631C633.82 176.291 633.79 176.941 633.76 177.591Z" fill="#5C414B"/>
<path d="M638.82 169.631C638.49 169.981 638.15 170.331 637.82 170.671C638.15 170.331 638.48 169.981 638.82 169.631Z" fill="#5C414B"/>
<path d="M634.82 174.631C634.48 174.981 634.15 175.321 633.81 175.671C634.15 175.321 634.48 174.981 634.82 174.631Z" fill="#5C414B"/>
<path d="M632.77 177.601C632.44 177.951 632.12 178.291 631.79 178.641C632.12 178.301 632.45 177.951 632.77 177.601Z" fill="#5C414B"/>
<path d="M758.6 567.601C758.93 567.931 759.27 568.261 759.6 568.601C759.91 568.941 760.22 569.281 760.53 569.621C760.58 574.271 760.85 578.921 760.65 583.551C760.34 590.751 752.13 598.431 744.96 598.461C736.49 598.491 728.03 598.531 719.56 598.441C713.27 598.381 705.69 590.911 705.83 584.601C705.94 579.511 704.55 574.461 705.64 569.381L705.69 569.421C706.14 569.201 706.44 568.831 706.69 568.411V568.421C707.12 568.181 707.46 567.851 707.69 567.411C708.12 567.171 708.46 566.841 708.69 566.411C709.12 566.171 709.46 565.841 709.69 565.411C710.12 565.171 710.46 564.841 710.69 564.411C711.12 564.171 711.46 563.841 711.69 563.411C712.12 563.171 712.46 562.841 712.69 562.411C713.12 562.171 713.46 561.841 713.69 561.411C714.12 561.171 714.46 560.841 714.69 560.411C715.12 560.171 715.46 559.841 715.69 559.411C716.12 559.171 716.46 558.841 716.69 558.411C717.12 558.171 717.46 557.841 717.69 557.411C718.12 557.171 718.46 556.841 718.69 556.411C719.12 556.171 719.46 555.841 719.69 555.411C720.12 555.171 720.46 554.841 720.69 554.411C721.12 554.171 721.46 553.841 721.69 553.411C722.12 553.171 722.46 552.841 722.69 552.411C723.12 552.171 723.46 551.841 723.69 551.411C724.12 551.171 724.46 550.841 724.69 550.411C725.12 550.171 725.46 549.841 725.69 549.411C726.12 549.171 726.46 548.841 726.69 548.411C727.12 548.181 727.46 547.841 727.69 547.411C728.12 547.181 728.46 546.841 728.69 546.411C729.12 546.181 729.46 545.841 729.69 545.411C730.12 545.181 730.46 544.841 730.69 544.411C731.12 544.171 731.48 543.871 731.69 543.411L731.65 543.341C732.64 543.451 733.63 543.551 734.62 543.661C734.96 543.981 735.29 544.291 735.63 544.611C735.96 544.941 736.3 545.271 736.63 545.611C736.96 545.941 737.3 546.281 737.63 546.611C737.96 546.941 738.3 547.281 738.63 547.611C738.96 547.941 739.3 548.281 739.63 548.611C739.96 548.941 740.3 549.281 740.63 549.611C740.96 549.941 741.3 550.281 741.63 550.611C741.96 550.941 742.3 551.281 742.63 551.611C742.96 551.941 743.3 552.281 743.63 552.611C743.96 552.941 744.3 553.281 744.63 553.611C744.96 553.941 745.3 554.281 745.63 554.611C745.96 554.941 746.3 555.281 746.63 555.611C746.96 555.941 747.3 556.281 747.63 556.611C747.96 556.941 748.3 557.281 748.63 557.611C748.96 557.941 749.3 558.281 749.63 558.611C749.96 558.941 750.3 559.281 750.63 559.611C750.96 559.941 751.3 560.281 751.63 560.611C751.96 560.941 752.3 561.281 752.63 561.611C752.96 561.941 753.3 562.281 753.63 562.611C753.96 562.941 754.3 563.281 754.63 563.611C754.96 563.941 755.3 564.281 755.63 564.611C755.96 564.941 756.3 565.281 756.63 565.611C756.96 565.941 757.3 566.281 757.63 566.611C757.93 566.931 758.26 567.261 758.6 567.601Z" fill="#4B3F4E"/>
<path d="M731.66 543.401C731.33 543.731 730.99 544.071 730.66 544.401C731 544.071 731.33 543.741 731.66 543.401Z" fill="#5D5360"/>
<path d="M730.67 544.401C730.34 544.731 730 545.071 729.67 545.401C730 545.071 730.33 544.741 730.67 544.401Z" fill="#5D5360"/>
<path d="M729.67 545.401C729.34 545.731 729 546.071 728.67 546.401C729 546.071 729.33 545.741 729.67 545.401Z" fill="#5D5360"/>
<path d="M728.67 546.401C728.34 546.731 728 547.071 727.67 547.401C728 547.071 728.33 546.741 728.67 546.401Z" fill="#5D5360"/>
<path d="M727.67 547.401C727.34 547.731 727 548.071 726.67 548.401C727 548.071 727.34 547.741 727.67 547.401Z" fill="#5D5360"/>
<path d="M726.67 548.401C726.34 548.731 726 549.071 725.67 549.401C726 549.071 726.34 548.741 726.67 548.401Z" fill="#5D5360"/>
<path d="M725.67 549.401C725.34 549.731 725 550.071 724.67 550.401C725 550.071 725.34 549.741 725.67 549.401Z" fill="#5D5360"/>
<path d="M724.67 550.401C724.34 550.731 724 551.071 723.67 551.401C724 551.071 724.34 550.741 724.67 550.401Z" fill="#5D5360"/>
<path d="M723.67 551.401C723.34 551.731 723 552.071 722.67 552.401C723 552.071 723.34 551.741 723.67 551.401Z" fill="#5D5360"/>
<path d="M722.67 552.401C722.34 552.731 722 553.071 721.67 553.401C722 553.071 722.34 552.741 722.67 552.401Z" fill="#5D5360"/>
<path d="M721.67 553.401C721.34 553.731 721 554.071 720.67 554.401C721 554.071 721.34 553.741 721.67 553.401Z" fill="#5D5360"/>
<path d="M720.67 554.401C720.34 554.731 720 555.071 719.67 555.401C720.01 555.071 720.34 554.741 720.67 554.401Z" fill="#5D5360"/>
<path d="M719.67 555.401C719.34 555.731 719 556.071 718.67 556.401C719.01 556.071 719.34 555.741 719.67 555.401Z" fill="#5D5360"/>
<path d="M718.67 556.401C718.34 556.731 718 557.071 717.67 557.401C718.01 557.071 718.34 556.741 718.67 556.401Z" fill="#5D5360"/>
<path d="M717.68 557.401C717.35 557.731 717.01 558.071 716.68 558.401C717.01 558.071 717.34 557.741 717.68 557.401Z" fill="#5D5360"/>
<path d="M715.68 559.401C715.35 559.731 715.01 560.071 714.68 560.401C715.01 560.071 715.34 559.731 715.68 559.401Z" fill="#5D5360"/>
<path d="M714.68 560.401C714.35 560.731 714.01 561.071 713.68 561.401C714.01 561.071 714.34 560.731 714.68 560.401Z" fill="#5D5360"/>
<path d="M713.68 561.401C713.35 561.731 713.01 562.071 712.68 562.401C713.01 562.071 713.34 561.731 713.68 561.401Z" fill="#5D5360"/>
<path d="M712.68 562.401C712.35 562.731 712.01 563.071 711.68 563.401C712.01 563.071 712.34 562.731 712.68 562.401Z" fill="#5D5360"/>
<path d="M711.68 563.401C711.35 563.731 711.01 564.071 710.68 564.401C711.01 564.071 711.34 563.731 711.68 563.401Z" fill="#5D5360"/>
<path d="M710.68 564.401C710.35 564.731 710.01 565.071 709.68 565.401C710.01 565.071 710.34 564.731 710.68 564.401Z" fill="#5D5360"/>
<path d="M709.68 565.401C709.35 565.731 709.01 566.071 708.68 566.401C709.01 566.071 709.34 565.731 709.68 565.401Z" fill="#5D5360"/>
<path d="M708.68 566.401C708.35 566.741 708.01 567.071 707.68 567.411C708.01 567.071 708.34 566.731 708.68 566.401Z" fill="#5D5360"/>
<path d="M716.68 558.401C716.35 558.731 716.01 559.071 715.68 559.401C716.01 559.071 716.34 558.731 716.68 558.401Z" fill="#5D5360"/>
<path d="M706.68 568.401C706.35 568.741 706.01 569.071 705.68 569.411C706.01 569.071 706.35 568.731 706.68 568.401Z" fill="#5D5360"/>
<path d="M707.68 567.401C707.35 567.741 707.01 568.071 706.68 568.411C707.01 568.071 707.35 567.731 707.68 567.401Z" fill="#5D5360"/>
</svg>
