<svg width="30" height="24" viewBox="0 0 30 24" fill="none" xmlns="http://www.w3.org/2000/svg">
<path d="M11.0513 12C12.2714 12 13.4417 11.5259 14.3045 10.682C15.1673 9.83807 15.652 8.69347 15.652 7.5C15.652 6.30653 15.1673 5.16193 14.3045 4.31802C13.4417 3.47411 12.2714 3 11.0513 3C9.83107 3 8.66086 3.47411 7.79806 4.31802C6.93526 5.16193 6.45054 6.30653 6.45054 7.5C6.45054 8.69347 6.93526 9.83807 7.79806 10.682C8.66086 11.5259 9.83107 12 11.0513 12ZM9.40866 13.6875C5.86826 13.6875 3 16.493 3 19.9559C3 20.5324 3.47804 21 4.06751 21H14.6024C14.491 20.6906 14.4694 20.3531 14.5521 20.0227L15.0913 17.9098C15.1919 17.5125 15.4004 17.1539 15.6951 16.8656L17.1436 15.4488C15.9898 14.359 14.4227 13.6875 12.6903 13.6875H9.40506H9.40866ZM25.0619 11.2863C24.5012 10.7379 23.5918 10.7379 23.0275 11.2863L21.9708 12.3199L24.5227 14.816L25.5795 13.7824C26.1402 13.234 26.1402 12.3445 25.5795 11.7926L25.0619 11.2863ZM16.511 17.6602C16.3636 17.8043 16.2594 17.9836 16.2091 18.184L15.6699 20.2969C15.6196 20.4902 15.6771 20.6906 15.8209 20.8313C15.9647 20.9719 16.1696 21.0281 16.3672 20.9789L18.5274 20.4516C18.7287 20.4023 18.9156 20.3004 19.063 20.1562L23.7068 15.6105L21.1549 13.1145L16.511 17.6602Z" fill="white"/>
</svg>











