<svg width="24" height="24" viewBox="0 0 24 24" fill="none" xmlns="http://www.w3.org/2000/svg">
<path d="M13.613 8.00191C13.613 7.82514 13.681 7.6556 13.802 7.5306C13.923 7.4056 14.0871 7.33537 14.2582 7.33537H21.3549C21.526 7.33537 21.6901 7.4056 21.811 7.5306C21.932 7.6556 22 7.82514 22 8.00191C22 8.17869 21.932 8.34823 21.811 8.47323C21.6901 8.59823 21.526 8.66845 21.3549 8.66845H14.2582C14.0871 8.66845 13.923 8.59823 13.802 8.47323C13.681 8.34823 13.613 8.17869 13.613 8.00191ZM21.3549 11.3346H14.2582C14.0871 11.3346 13.923 11.4048 13.802 11.5298C13.681 11.6548 13.613 11.8244 13.613 12.0011C13.613 12.1779 13.681 12.3475 13.802 12.4725C13.923 12.5975 14.0871 12.6677 14.2582 12.6677H21.3549C21.526 12.6677 21.6901 12.5975 21.811 12.4725C21.932 12.3475 22 12.1779 22 12.0011C22 11.8244 21.932 11.6548 21.811 11.5298C21.6901 11.4048 21.526 11.3346 21.3549 11.3346ZM21.3549 15.3338H16.1936C16.0225 15.3338 15.8584 15.4041 15.7375 15.5291C15.6165 15.6541 15.5485 15.8236 15.5485 16.0004C15.5485 16.1772 15.6165 16.3467 15.7375 16.4717C15.8584 16.5967 16.0225 16.6669 16.1936 16.6669H21.3549C21.526 16.6669 21.6901 16.5967 21.811 16.4717C21.932 16.3467 22 16.1772 22 16.0004C22 15.8236 21.932 15.6541 21.811 15.5291C21.6901 15.4041 21.526 15.3338 21.3549 15.3338ZM10.1687 13.1676C10.809 12.6581 11.2789 11.9543 11.5124 11.1549C11.746 10.3555 11.7315 9.5007 11.471 8.71027C11.2105 7.91983 10.7171 7.23346 10.06 6.74741C9.40281 6.26135 8.61488 6 7.80668 6C6.99849 6 6.21056 6.26135 5.5534 6.74741C4.89625 7.23346 4.40283 7.91983 4.14234 8.71027C3.88186 9.5007 3.86737 10.3555 4.10092 11.1549C4.33447 11.9543 4.80434 12.6581 5.44462 13.1676C3.78175 13.895 2.47129 15.3588 2.02049 17.1668C1.99586 17.2653 1.9934 17.3684 2.01329 17.468C2.03318 17.5677 2.07488 17.6613 2.13521 17.7418C2.19555 17.8222 2.2729 17.8873 2.36135 17.932C2.44979 17.9768 2.54699 18.0001 2.64548 18H12.9679C13.0664 18.0001 13.1636 17.9768 13.252 17.932C13.3405 17.8873 13.4178 17.8222 13.4782 17.7418C13.5385 17.6613 13.5802 17.5677 13.6001 17.468C13.62 17.3684 13.6175 17.2653 13.5929 17.1668C13.1421 15.358 11.8316 13.8941 10.1687 13.1676Z" fill="white"/>
</svg>











