<svg width="24" height="24" viewBox="0 0 24 24" fill="none" xmlns="http://www.w3.org/2000/svg">
<path d="M3 22V21.425C3 21.025 3.10833 20.6583 3.325 20.325C3.54167 19.9917 3.84167 19.7417 4.225 19.575C4.65833 19.3917 5.10433 19.25 5.563 19.15C6.02167 19.05 6.50067 19 7 19C7.49933 19 7.97867 19.05 8.438 19.15C8.89733 19.25 9.343 19.3917 9.775 19.575C10.1583 19.7417 10.4583 19.9917 10.675 20.325C10.8917 20.6583 11 21.025 11 21.425V22H3ZM13 22V21.425C13 21.025 13.1083 20.6583 13.325 20.325C13.5417 19.9917 13.8417 19.7417 14.225 19.575C14.6583 19.3917 15.1043 19.25 15.563 19.15C16.0217 19.05 16.5007 19 17 19C17.4993 19 17.9787 19.05 18.438 19.15C18.8973 19.25 19.343 19.3917 19.775 19.575C20.1583 19.7417 20.4583 19.9917 20.675 20.325C20.8917 20.6583 21 21.025 21 21.425V22H13ZM7 18C6.45 18 5.97933 17.8043 5.588 17.413C5.19667 17.0217 5.00067 16.5507 5 16C4.99933 15.4493 5.19533 14.9787 5.588 14.588C5.98067 14.1973 6.45133 14.0013 7 14C7.54867 13.9987 8.01967 14.1947 8.413 14.588C8.80633 14.9813 9.002 15.452 9 16C8.998 16.548 8.80233 17.019 8.413 17.413C8.02367 17.807 7.55267 18.0027 7 18ZM17 18C16.45 18 15.9793 17.8043 15.588 17.413C15.1967 17.0217 15.0007 16.5507 15 16C14.9993 15.4493 15.1953 14.9787 15.588 14.588C15.9807 14.1973 16.4513 14.0013 17 14C17.5487 13.9987 18.0197 14.1947 18.413 14.588C18.8063 14.9813 19.002 15.452 19 16C18.998 16.548 18.8023 17.019 18.413 17.413C18.0237 17.807 17.5527 18.0027 17 18ZM12 16L9 13L10.05 11.95L11.25 13.125V11H12.75V13.125L13.95 11.95L15 13L12 16ZM2 10V9.42501C2 9.02501 2.10833 8.65834 2.325 8.32501C2.54167 7.99167 2.84167 7.74167 3.225 7.57501C3.65833 7.39167 4.10433 7.25001 4.563 7.15001C5.02167 7.05001 5.50067 7.00001 6 7.00001C6.33333 7.00001 6.66267 7.02501 6.988 7.07501C7.31333 7.12501 7.62567 7.19167 7.925 7.27501C7.64167 7.55834 7.41667 7.88334 7.25 8.25001C7.08333 8.61667 7 9.00834 7 9.42501V10H2ZM8 10V9.42501C8 9.02501 8.10833 8.65834 8.325 8.32501C8.54167 7.99167 8.84167 7.74167 9.225 7.57501C9.65833 7.39167 10.1043 7.25001 10.563 7.15001C11.0217 7.05001 11.5007 7.00001 12 7.00001C12.4993 7.00001 12.9787 7.05001 13.438 7.15001C13.8973 7.25001 14.343 7.39167 14.775 7.57501C15.1583 7.74167 15.4583 7.99167 15.675 8.32501C15.8917 8.65834 16 9.02501 16 9.42501V10H8ZM17 10V9.42501C17 9.00834 16.9167 8.61667 16.75 8.25001C16.5833 7.88334 16.3583 7.55834 16.075 7.27501C16.375 7.19167 16.6877 7.12501 17.013 7.07501C17.3383 7.02501 17.6673 7.00001 18 7.00001C18.5 7.00001 18.9793 7.05001 19.438 7.15001C19.8967 7.25001 20.3423 7.39167 20.775 7.57501C21.1583 7.74167 21.4583 7.99167 21.675 8.32501C21.8917 8.65834 22 9.02501 22 9.42501V10H17ZM6 6.00001C5.45 6.00001 4.97933 5.80434 4.588 5.41301C4.19667 5.02167 4.00067 4.55067 4 4.00001C3.99933 3.44934 4.19533 2.97867 4.588 2.58801C4.98067 2.19734 5.45133 2.00134 6 2.00001C6.54867 1.99867 7.01967 2.19467 7.413 2.58801C7.80633 2.98134 8.002 3.45201 8 4.00001C7.998 4.54801 7.80233 5.01901 7.413 5.41301C7.02367 5.80701 6.55267 6.00267 6 6.00001ZM12 6.00001C11.45 6.00001 10.9793 5.80434 10.588 5.41301C10.1967 5.02167 10.0007 4.55067 10 4.00001C9.99933 3.44934 10.1953 2.97867 10.588 2.58801C10.9807 2.19734 11.4513 2.00134 12 2.00001C12.5487 1.99867 13.0197 2.19467 13.413 2.58801C13.8063 2.98134 14.002 3.45201 14 4.00001C13.998 4.54801 13.8023 5.01901 13.413 5.41301C13.0237 5.80701 12.5527 6.00267 12 6.00001ZM18 6.00001C17.45 6.00001 16.9793 5.80434 16.588 5.41301C16.1967 5.02167 16.0007 4.55067 16 4.00001C15.9993 3.44934 16.1953 2.97867 16.588 2.58801C16.9807 2.19734 17.4513 2.00134 18 2.00001C18.5487 1.99867 19.0197 2.19467 19.413 2.58801C19.8063 2.98134 20.002 3.45201 20 4.00001C19.998 4.54801 19.8023 5.01901 19.413 5.41301C19.0237 5.80701 18.5527 6.00267 18 6.00001Z" fill="white"/>
</svg>











