<svg width="24" height="24" viewBox="0 0 24 24" fill="none" xmlns="http://www.w3.org/2000/svg">
<g clip-path="url(#clip0_74_983)">
<path d="M20 12C20 12.5523 20.4477 13 21 13C21.5523 13 22 12.5523 22 12H20ZM12 22C12.5523 22 13 21.5523 13 21C13 20.4477 12.5523 20 12 20V22ZM19.1247 17.2191C18.6934 16.8741 18.0641 16.944 17.7191 17.3753C17.3741 17.8066 17.444 18.4359 17.8753 18.7809L19.1247 17.2191ZM20.3753 20.7809C20.8066 21.1259 21.4359 21.056 21.7809 20.6247C22.1259 20.1934 22.056 19.5641 21.6247 19.2191L20.3753 20.7809ZM7 7C6.44772 7 6 7.44772 6 8C6 8.55228 6.44772 9 7 9V7ZM17 9C17.5523 9 18 8.55228 18 8C18 7.44772 17.5523 7 17 7V9ZM7 11C6.44772 11 6 11.4477 6 12C6 12.5523 6.44772 13 7 13V11ZM11 13C11.5523 13 12 12.5523 12 12C12 11.4477 11.5523 11 11 11V13ZM22 12V4.5H20V12H22ZM22 4.5C22 3.83696 21.7366 3.20107 21.2678 2.73223L19.8536 4.14645C19.9473 4.24022 20 4.36739 20 4.5H22ZM21.2678 2.73223C20.7989 2.26339 20.163 2 19.5 2V4C19.6326 4 19.7598 4.05268 19.8536 4.14645L21.2678 2.73223ZM19.5 2H4.5V4H19.5V2ZM4.5 2C3.83696 2 3.20107 2.26339 2.73223 2.73223L4.14645 4.14645C4.24021 4.05268 4.36739 4 4.5 4V2ZM2.73223 2.73223C2.26339 3.20107 2 3.83696 2 4.5H4C4 4.36739 4.05268 4.24021 4.14645 4.14645L2.73223 2.73223ZM2 4.5V19.5H4V4.5H2ZM2 19.5C2 20.163 2.26339 20.7989 2.73223 21.2678L4.14645 19.8536C4.05268 19.7598 4 19.6326 4 19.5H2ZM2.73223 21.2678C3.20107 21.7366 3.83696 22 4.5 22V20C4.36739 20 4.24022 19.9473 4.14645 19.8536L2.73223 21.2678ZM4.5 22H12V20H4.5V22ZM18 16C18 17.1046 17.1046 18 16 18V20C18.2091 20 20 18.2091 20 16H18ZM16 18C14.8954 18 14 17.1046 14 16H12C12 18.2091 13.7909 20 16 20V18ZM14 16C14 14.8954 14.8954 14 16 14V12C13.7909 12 12 13.7909 12 16H14ZM16 14C17.1046 14 18 14.8954 18 16H20C20 13.7909 18.2091 12 16 12V14ZM17.8753 18.7809L20.3753 20.7809L21.6247 19.2191L19.1247 17.2191L17.8753 18.7809ZM7 9H17V7H7V9ZM7 13H11V11H7V13Z" fill="white"/>
</g>
<defs>
<clipPath id="clip0_74_983">
<rect width="24" height="24" fill="white"/>
</clipPath>
</defs>
</svg>











