<svg width="24" height="24" viewBox="0 0 24 24" fill="none" xmlns="http://www.w3.org/2000/svg">
<g clip-path="url(#clip0_74_920)">
<path d="M11 8.5C11 10.71 9.21 12.5 7 12.5C4.79 12.5 3 10.71 3 8.5C3 6.29 4.79 4.5 7 4.5C9.21 4.5 11 6.29 11 8.5ZM11 15.22V20.5H0V18.5C0 16.29 3.13 14.5 7 14.5C8.5 14.5 9.87 14.77 11 15.22ZM24 20.5H13V3.5H24V20.5ZM16 12C16 11.337 16.2634 10.7011 16.7322 10.2322C17.2011 9.76339 17.837 9.5 18.5 9.5C19.163 9.5 19.7989 9.76339 20.2678 10.2322C20.7366 10.7011 21 11.337 21 12C21 12.663 20.7366 13.2989 20.2678 13.7678C19.7989 14.2366 19.163 14.5 18.5 14.5C17.837 14.5 17.2011 14.2366 16.7322 13.7678C16.2634 13.2989 16 12.663 16 12ZM22 7.5C21.4696 7.5 20.9609 7.28929 20.5858 6.91421C20.2107 6.53914 20 6.03043 20 5.5H17C17 6.61 16.11 7.5 15 7.5V16.5C15.5304 16.5 16.0391 16.7107 16.4142 17.0858C16.7893 17.4609 17 17.9696 17 18.5H20C20 17.4 20.9 16.5 22 16.5V7.5Z" fill="white"/>
</g>
<defs>
<clipPath id="clip0_74_920">
<rect width="24" height="24" fill="white"/>
</clipPath>
</defs>
</svg>











