<svg xmlns="http://www.w3.org/2000/svg" xmlns:xlink="http://www.w3.org/1999/xlink" viewBox="0 0 1329 596"><defs><style>.cls-1{fill:url(#Degradado_sin_nombre_15);}.cls-2{fill:url(#Degradado_sin_nombre_15-2);}.cls-3{fill:url(#Degradado_sin_nombre_15-3);}.cls-4{fill:url(#Degradado_sin_nombre_15-4);}.cls-5{fill:url(#Degradado_sin_nombre_15-5);}.cls-6{fill:url(#Degradado_sin_nombre_15-6);}.cls-7{fill:url(#Degradado_sin_nombre_15-7);}.cls-8{fill:url(#Degradado_sin_nombre_15-8);}.cls-9{fill:url(#Degradado_sin_nombre_15-9);}.cls-10{fill:url(#Degradado_sin_nombre_15-10);}.cls-11{fill:url(#Degradado_sin_nombre_15-11);}.cls-12{fill:url(#Degradado_sin_nombre_15-12);}</style><linearGradient id="Degradado_sin_nombre_15" x1="151.35" y1="316.84" x2="232.61" y2="316.84" gradientUnits="userSpaceOnUse"><stop offset="0" stop-color="#fe6d01"/><stop offset="0.13" stop-color="#fe7406"/><stop offset="0.4" stop-color="#fe7f0e"/><stop offset="1" stop-color="#fe6d01"/></linearGradient><linearGradient id="Degradado_sin_nombre_15-2" x1="176.3" y1="311.49" x2="250.48" y2="311.49" xlink:href="#Degradado_sin_nombre_15"/><linearGradient id="Degradado_sin_nombre_15-3" x1="179.53" y1="268.74" x2="207.37" y2="268.74" xlink:href="#Degradado_sin_nombre_15"/><linearGradient id="Degradado_sin_nombre_15-4" x1="208.39" y1="205.2" x2="238.88" y2="205.2" xlink:href="#Degradado_sin_nombre_15"/><linearGradient id="Degradado_sin_nombre_15-5" x1="236.39" y1="217.64" x2="249.57" y2="217.64" xlink:href="#Degradado_sin_nombre_15"/><linearGradient id="Degradado_sin_nombre_15-6" x1="606.91" y1="382.17" x2="847.83" y2="465.25" xlink:href="#Degradado_sin_nombre_15"/><linearGradient id="Degradado_sin_nombre_15-7" x1="617.68" y1="350.94" x2="858.6" y2="434.02" xlink:href="#Degradado_sin_nombre_15"/><linearGradient id="Degradado_sin_nombre_15-8" x1="620.94" y1="341.48" x2="861.86" y2="424.55" xlink:href="#Degradado_sin_nombre_15"/><linearGradient id="Degradado_sin_nombre_15-9" x1="644.95" y1="271.86" x2="885.87" y2="354.93" xlink:href="#Degradado_sin_nombre_15"/><linearGradient id="Degradado_sin_nombre_15-10" x1="660.15" y1="227.78" x2="901.07" y2="310.85" xlink:href="#Degradado_sin_nombre_15"/><linearGradient id="Degradado_sin_nombre_15-11" x1="682.88" y1="161.84" x2="923.81" y2="244.91" xlink:href="#Degradado_sin_nombre_15"/><linearGradient id="Degradado_sin_nombre_15-12" x1="640.42" y1="284.97" x2="881.35" y2="368.05" xlink:href="#Degradado_sin_nombre_15"/></defs><title>logo 2 sifrah NARANJA LOGIN</title><g id="NARANJA"><path class="cls-1" d="M179.76,321.3c-2.67,5-6.78,7.56-11.85,8.78-.84.2-1.71.29-2.56.42-8.78,1.35-15.2-5.12-13.81-13.94s6.94-13.82,14.67-17a46.43,46.43,0,0,1,13.1-3c15.11-1.6,27.51-8.07,35.95-20.92,5.34-8.14,8-17.37,9.28-27a100.93,100.93,0,0,0,.59-11.39c0-.81-.36-1.74.58-2.47,1.1.68,1.13,1.87,1.38,2.9A186.39,186.39,0,0,1,232.3,293c-1.32,22.18-6.88,43.23-19,62.12-9.85,15.36-23.08,27.25-38.87,36.34a110.22,110.22,0,0,1-12,6.18c-1.24.53-2.52.94-3.78,1.41l-.32-.56c2.07-1.73,4.11-3.5,6.22-5.18,14.32-11.33,26.11-24.73,33.58-41.55,3.76-8.47,6-17.15,1.77-26.31-5.06-11.12-14.59-16.21-26.17-14.61-3.67.5-7.32,1.32-10.36,3.76-2.62,2.11-3.8,5-2.83,7.45,1,2.6,4.34,4.29,7.57,3.79a21.37,21.37,0,0,0,8.59-3.49C177.47,321.81,178.12,321,179.76,321.3Z"/><path class="cls-2" d="M243.39,229.86c2.43,4.25,2.91,9,3.84,13.6A163,163,0,0,1,250.45,279c-.37,19.79-3.65,39.08-12,57.2-10,21.63-25.68,38.08-46.42,49.79a123.93,123.93,0,0,1-13.46,6.69,2.63,2.63,0,0,1-2.22.25c2.15-1.33,3.91-2.47,5.73-3.54,19.23-11.36,33.38-27.41,43.74-47.05,10.69-20.3,16-42.12,18.37-64.73a186.63,186.63,0,0,0-.74-46.81A6.4,6.4,0,0,1,243.39,229.86Z"/><path class="cls-3" d="M193.62,282.55c-7.93.45-13.91-5.85-14.08-13.47-.18-8,6-14.1,14.07-14.19,7.38-.08,13.91,6.65,13.75,14.33C207.21,276.46,200.78,283.13,193.62,282.55Z"/><path class="cls-4" d="M208.39,205.07c4.12-1.62,8.23-1.09,11.13-4s2.76-6.9,3.93-11.06c2.23,3.81,1.38,8.11,4.49,11s7.09,2.34,10.94,4.09c-3.82,1.87-8.08,1.31-11,4.19s-2.31,7.24-4.17,11.09c-1.75-3.84-1.15-7.94-4.11-10.89S212.51,207,208.39,205.07Z"/><path class="cls-5" d="M249.57,217.88c-3.2.92-5.52,2.18-5.89,5.52,0,.27-.4.5-.61.75-.24-.21-.67-.39-.7-.63-.39-3.39-2.6-4.85-6-5.52,3.62-.91,5.84-3,6.48-6.87C243.77,214.85,245.67,217.23,249.57,217.88Z"/><path class="cls-6" d="M454.83,272.6V257.32H333.11a24.2,24.2,0,0,0-6.61.91,34.61,34.61,0,0,0-6.05,2.33,29.6,29.6,0,0,0-11.51,11.52,33.57,33.57,0,0,0-3.24,12.66V285a35,35,0,0,0,1,6.62,27.4,27.4,0,0,0,2.24,5.94,22.79,22.79,0,0,0,5.61,7.24c.95.82,1.91,1.62,2.86,2.38a15.3,15.3,0,0,0,3,1.9,27.92,27.92,0,0,0,12.66,2.95H439.62a12.91,12.91,0,0,1,4.94,1.14,13.2,13.2,0,0,1,4,2.81,13.39,13.39,0,0,1,2.71,4.09,12.29,12.29,0,0,1,1,4.91,11.36,11.36,0,0,1-1,4.75,13.6,13.6,0,0,1-2.76,4,13.86,13.86,0,0,1-4,2.76,11.47,11.47,0,0,1-4.85,1.05H310.33v14.75H439.62a25.74,25.74,0,0,0,7.51-1.09,28.1,28.1,0,0,0,6.76-3.05,27.72,27.72,0,0,0,9.9-10.61,31,31,0,0,0,2.33-6.05A24.52,24.52,0,0,0,467,325a24.79,24.79,0,0,0-.91-6.67,40.5,40.5,0,0,0-2.33-6.28,25.23,25.23,0,0,0-5.62-7.23,26.11,26.11,0,0,0-8.37-5.33,27.14,27.14,0,0,0-10.18-1.91H333.11a11.46,11.46,0,0,1-4.85-1,13.2,13.2,0,0,1-4-2.81,14.16,14.16,0,0,1-2.76-4.09,11.83,11.83,0,0,1-1.05-4.9,11.48,11.48,0,0,1,1.05-4.86,13.86,13.86,0,0,1,2.76-4,13.6,13.6,0,0,1,4-2.76,11.61,11.61,0,0,1,4.85-1"/><polygon class="cls-7" points="476.54 272.08 476.54 352.31 491.3 352.31 491.3 337.56 491.3 312.05 491.3 297.58 491.3 272.08 491.3 257.32 476.54 257.32 476.54 272.08"/><polygon class="cls-8" points="515.57 297.58 500.81 297.58 500.81 337.56 500.81 352.31 515.57 352.31 515.57 337.56 515.57 312.05 645.2 312.05 645.2 297.58 522.32 297.58 515.57 297.58"/><path class="cls-9" d="M829.46,297.58a40.71,40.71,0,0,0,2.33-6.23,23.87,23.87,0,0,0,.91-6.61,24.13,24.13,0,0,0-.91-6.52,33.49,33.49,0,0,0-2.33-6.14,27.84,27.84,0,0,0-9.9-10.62,28.25,28.25,0,0,0-6.76-3,25.75,25.75,0,0,0-7.51-1.1H686.12l-14.64.11v14.65H806.62A12.31,12.31,0,0,1,811,273.5a14,14,0,0,1,3.61,2.81,12.9,12.9,0,0,1,2.43,3.86,11.91,11.91,0,0,1,.91,4.57,12.5,12.5,0,0,1-.91,4.71,13.48,13.48,0,0,1-2.43,3.95,12.42,12.42,0,0,1-3.61,2.8,12.86,12.86,0,0,1-4.38,1.38H671.37v54.73h14.75V312.05H805.29a11.47,11.47,0,0,1,4.85,1.05,13.15,13.15,0,0,1,4,2.81,13.88,13.88,0,0,1,2.76,4.14A12.09,12.09,0,0,1,818,325v27.31H832.7V325a24.4,24.4,0,0,0-.91-6.67,40.5,40.5,0,0,0-2.33-6.28,23.26,23.26,0,0,0-2.52-3.81q-1.49-1.8-3.09-3.42,1.6-1.62,3.09-3.43A22.44,22.44,0,0,0,829.46,297.58Z"/><polygon class="cls-10" points="994.69 337.56 972.7 312.05 966.23 304.82 959.76 297.58 937.77 272.08 934.54 268.65 924.92 257.32 914.93 268.65 911.98 272.08 889.99 297.58 883.52 304.82 877.14 312.05 855.16 337.56 844.4 349.93 842.21 352.31 844.4 352.31 861.82 352.31 874.67 337.56 924.92 279.88 940.15 297.58 946.63 304.82 953.1 312.05 975.08 337.56 987.93 352.31 1005.44 352.31 1007.54 352.31 1005.44 349.93 994.69 337.56"/><polygon class="cls-11" points="1163.25 257.32 1163.25 272.08 1163.25 297.58 1031.81 297.58 1031.81 272.08 1031.81 257.32 1017.05 257.32 1017.05 272.08 1017.05 352.31 1031.81 352.31 1031.81 337.56 1031.81 312.05 1163.25 312.05 1163.25 337.56 1163.25 352.31 1178 352.31 1178 297.58 1178 257.32 1163.25 257.32"/><polygon class="cls-12" points="515.57 257.32 501.4 257.32 501.4 272.08 515.57 272.08 522.32 272.08 661.85 272.08 661.85 257.32 515.57 257.32"/></g></svg>