<svg width="863" height="686" viewBox="0 0 863 686" fill="none" xmlns="http://www.w3.org/2000/svg">
<path d="M147.999 607V591.91H27.7792C25.5192 591.91 23.3492 592.21 21.2492 592.8C19.1492 593.4 17.1592 594.16 15.2792 595.1C12.8992 596.42 10.7392 598.05 8.78922 599.99C6.84922 601.93 5.21922 604.1 3.89922 606.48C2.07922 610.18 1.01922 614.35 0.699219 618.98V619.26C0.819219 621.52 1.14922 623.69 1.68922 625.79C2.21922 627.89 2.95922 629.85 3.89922 631.67C5.21922 634.37 7.05922 636.75 9.44922 638.81C10.3892 639.63 11.3292 640.41 12.2692 641.16C13.2092 641.91 14.2092 642.54 15.2792 643.04C19.1692 644.98 23.3292 645.96 27.7792 645.96H132.979C134.729 646.02 136.359 646.4 137.869 647.09C139.369 647.78 140.689 648.7 141.819 649.86C142.949 651.02 143.839 652.37 144.499 653.9C145.159 655.44 145.489 657.05 145.489 658.74C145.489 660.43 145.139 661.94 144.459 663.44C143.769 664.94 142.859 666.26 141.729 667.39C140.599 668.52 139.289 669.43 137.779 670.12C136.279 670.81 134.679 671.15 132.989 671.15H5.28922V685.72H132.989C135.559 685.72 138.029 685.36 140.419 684.64C142.799 683.92 145.029 682.92 147.089 681.63C149.159 680.35 151.019 678.81 152.679 677.02C154.339 675.23 155.739 673.28 156.859 671.14C157.799 669.32 158.569 667.33 159.159 665.17C159.749 663.01 160.049 660.86 160.049 658.73C160.049 656.47 159.749 654.28 159.159 652.15C158.559 650.02 157.799 647.95 156.859 645.95C155.609 643.44 153.759 641.06 151.309 638.8C148.929 636.54 146.169 634.79 143.039 633.54C139.909 632.29 136.549 631.66 132.979 631.66H27.7792C26.0892 631.66 24.4892 631.32 22.9892 630.63C21.4892 629.94 20.1692 629.02 19.0392 627.86C17.9092 626.7 16.9992 625.35 16.3092 623.82C15.6192 622.28 15.2792 620.67 15.2792 618.98C15.2792 617.29 15.6192 615.69 16.3092 614.19C16.9992 612.69 17.9092 611.37 19.0392 610.24C20.1692 609.11 21.4792 608.2 22.9892 607.51C24.4892 606.82 26.0892 606.48 27.7792 606.48" fill="url(#paint0_linear_869_17)"/>
<path d="M169.449 606.48V685.73H184.019V671.16V645.96V631.67V606.48V591.91H169.449V606.48Z" fill="url(#paint1_linear_869_17)"/>
<path d="M207.99 631.67H193.42V671.16V685.73H207.99V671.16V645.96H336.03V631.67H214.67H207.99Z" fill="url(#paint2_linear_869_17)"/>
<path d="M518.039 631.67C518.979 629.67 519.749 627.61 520.339 625.51C520.939 623.41 521.229 621.23 521.229 618.98C521.229 616.85 520.929 614.7 520.339 612.54C519.749 610.38 518.979 608.36 518.039 606.48C516.909 604.35 515.519 602.39 513.859 600.6C512.199 598.81 510.329 597.28 508.269 595.99C506.199 594.71 503.979 593.7 501.589 592.98C499.209 592.26 496.729 591.9 494.159 591.9H376.459L361.989 592V606.47H495.469C496.969 606.66 498.419 607.13 499.789 607.88C501.169 608.63 502.359 609.56 503.359 610.65C504.359 611.75 505.159 613.02 505.759 614.46C506.359 615.9 506.649 617.41 506.649 618.97C506.649 620.53 506.349 622.15 505.759 623.62C505.159 625.09 504.369 626.39 503.359 627.52C502.359 628.65 501.159 629.57 499.789 630.29C498.409 631.01 496.969 631.47 495.469 631.65H361.879V685.71H376.449V645.94H494.149C495.839 645.94 497.439 646.28 498.939 646.97C500.439 647.66 501.759 648.58 502.889 649.74C504.019 650.9 504.929 652.26 505.619 653.83C506.309 655.4 506.659 657.03 506.659 658.72V685.7H521.229V658.72C521.229 656.46 520.929 654.27 520.339 652.14C519.739 650.01 518.979 647.94 518.039 645.94C517.349 644.62 516.519 643.37 515.549 642.18C514.579 640.99 513.559 639.86 512.499 638.8C513.559 637.74 514.579 636.61 515.549 635.42C516.519 634.23 517.349 632.98 518.039 631.66V631.67Z" fill="url(#paint3_linear_869_17)"/>
<path d="M681.239 671.16L659.519 645.96L653.129 638.82L646.739 631.67L625.019 606.48L621.819 603.09L612.329 591.91L602.459 603.09L599.539 606.48L577.829 631.67L571.429 638.82L565.139 645.96L543.419 671.16L532.799 683.38L530.629 685.73H532.799H549.999L562.689 671.16L612.329 614.19L627.369 631.67L633.759 638.82L640.159 645.96L661.869 671.16L674.559 685.73H691.859H693.929L691.859 683.38L681.239 671.16Z" fill="url(#paint4_linear_869_17)"/>
<path d="M847.73 591.91V606.48V631.67H717.9V606.48V591.91H703.33V606.48V685.73H717.9V671.16V645.96H847.73V671.16V685.73H862.3V631.67V591.91H847.73Z" fill="url(#paint5_linear_869_17)"/>
<path d="M207.99 591.91H194V606.48H207.99H214.67H352.49V591.91H207.99Z" fill="url(#paint6_linear_869_17)"/>
<path d="M385.73 339.51C378.83 352.55 368.22 359.06 355.1 362.21C352.93 362.73 350.69 362.96 348.48 363.3C325.78 366.79 309.17 350.06 312.76 327.25C316.3 304.77 330.71 291.52 350.7 283.23C361.54 278.73 372.97 276.61 384.59 275.38C423.66 271.24 455.72 254.53 477.54 221.29C491.36 200.23 498.34 176.37 501.53 151.4C502.78 141.6 502.95 131.78 503.08 121.94C503.11 119.87 502.15 117.45 504.57 115.56C507.41 117.33 507.49 120.41 508.14 123.07C519.62 170.12 524.46 217.92 521.6 266.21C518.21 323.57 503.83 377.98 472.5 426.83C447.02 466.55 412.83 497.31 372 520.8C361.91 526.6 351.75 532.26 341.01 536.8C337.81 538.15 334.49 539.23 331.23 540.44C330.95 539.96 330.68 539.48 330.4 538.99C335.76 534.52 341.03 529.93 346.5 525.6C383.52 496.3 414.02 461.63 433.33 418.15C443.06 396.25 448.71 373.8 437.91 350.11C424.81 321.35 400.17 308.2 370.24 312.33C360.74 313.64 351.31 315.74 343.44 322.07C336.67 327.51 333.61 335.05 336.12 341.32C338.82 348.05 347.35 352.42 355.68 351.12C363.77 349.86 371.09 346.63 377.9 342.11C379.83 340.83 381.5 338.63 385.73 339.5V339.51Z" fill="url(#paint7_linear_869_17)"/>
<path d="M550.281 103.06C556.571 114.05 557.791 126.34 560.211 138.24C566.381 168.56 569.111 199.36 568.531 230.24C567.571 281.42 559.091 331.31 537.381 378.15C511.451 434.08 470.971 476.63 417.341 506.91C406.031 513.3 394.551 519.25 382.541 524.19C381.161 524.76 379.861 525.76 376.791 524.86C382.341 521.41 386.911 518.45 391.601 515.69C441.331 486.31 477.941 444.82 504.711 394.02C532.371 341.54 546.061 285.11 552.221 226.64C556.471 186.29 556.221 145.88 550.301 105.62C550.181 104.79 550.281 103.92 550.281 103.07V103.06Z" fill="url(#paint8_linear_869_17)"/>
<path d="M421.59 239.31C401.09 240.49 385.62 224.19 385.17 204.48C384.7 183.83 400.79 168.04 421.56 167.81C440.64 167.59 457.54 185 457.12 204.85C456.72 223.59 440.1 240.83 421.59 239.32V239.31Z" fill="url(#paint9_linear_869_17)"/>
<path d="M459.791 38.97C470.421 34.78 481.051 36.15 488.561 28.6C496.091 21.03 495.691 10.75 498.731 0C504.491 9.84 502.291 20.98 510.321 28.53C518.171 35.91 528.671 34.58 538.611 39.1C528.741 43.93 517.721 42.5 510.111 49.93C502.381 57.48 504.151 68.66 499.331 78.63C494.821 68.68 496.371 58.1 488.711 50.45C481.041 42.79 470.431 44.07 459.781 38.98L459.791 38.97Z" fill="#001C50"/>
<path d="M566.26 72.0899C557.98 74.4699 552 77.7299 551.02 86.3699C550.94 87.0599 549.99 87.6599 549.44 88.2999C548.82 87.7599 547.72 87.2898 547.65 86.6898C546.62 77.9098 540.93 74.1499 532.17 72.3999C541.54 70.0599 547.28 64.7599 548.95 54.6499C551.27 64.2499 556.17 70.4099 566.26 72.0999V72.0899Z" fill="#001C50"/>
<defs>
<linearGradient id="paint0_linear_869_17" x1="41.2892" y1="706.52" x2="117.599" y2="574.35" gradientUnits="userSpaceOnUse">
<stop stop-color="#00AE62"/>
<stop offset="1" stop-color="#001C50"/>
</linearGradient>
<linearGradient id="paint1_linear_869_17" x1="154.599" y1="677.16" x2="198.869" y2="600.48" gradientUnits="userSpaceOnUse">
<stop stop-color="#00AE62"/>
<stop offset="1" stop-color="#001C50"/>
</linearGradient>
<linearGradient id="paint2_linear_869_17" x1="226.59" y1="704.88" x2="285.65" y2="602.58" gradientUnits="userSpaceOnUse">
<stop stop-color="#00AE62"/>
<stop offset="1" stop-color="#001C50"/>
</linearGradient>
<linearGradient id="paint3_linear_869_17" x1="401.389" y1="708.54" x2="476.839" y2="577.84" gradientUnits="userSpaceOnUse">
<stop stop-color="#00AE62"/>
<stop offset="1" stop-color="#001C50"/>
</linearGradient>
<linearGradient id="paint4_linear_869_17" x1="591.869" y1="721.08" x2="652.919" y2="615.34" gradientUnits="userSpaceOnUse">
<stop stop-color="#00AE62"/>
<stop offset="1" stop-color="#001C50"/>
</linearGradient>
<linearGradient id="paint5_linear_869_17" x1="742.63" y1="708.42" x2="823" y2="569.22" gradientUnits="userSpaceOnUse">
<stop stop-color="#00AE62"/>
<stop offset="1" stop-color="#001C50"/>
</linearGradient>
<linearGradient id="paint6_linear_869_17" x1="250.28" y1="638.97" x2="296.21" y2="559.41" gradientUnits="userSpaceOnUse">
<stop stop-color="#00AE62"/>
<stop offset="1" stop-color="#001C50"/>
</linearGradient>
<linearGradient id="paint7_linear_869_17" x1="305.04" y1="525.32" x2="532.35" y2="131.6" gradientUnits="userSpaceOnUse">
<stop stop-color="#00AE62"/>
<stop offset="1" stop-color="#001C50"/>
</linearGradient>
<linearGradient id="paint8_linear_869_17" x1="376.801" y1="314.14" x2="568.611" y2="314.14" gradientUnits="userSpaceOnUse">
<stop stop-color="#00AE62"/>
<stop offset="1" stop-color="#001C50"/>
</linearGradient>
<linearGradient id="paint9_linear_869_17" x1="402.95" y1="235.08" x2="438.99" y2="172.67" gradientUnits="userSpaceOnUse">
<stop stop-color="#00AE62"/>
<stop offset="1" stop-color="#001C50"/>
</linearGradient>
</defs>
</svg>
