<svg  width="863" height="686" xmlns="http://www.w3.org/2000/svg" viewBox="0 0 1000 1000"><defs><style>.cls-1{fill:#fff;}</style></defs><title>logo sifrah BLANCO LOGIN</title><path class="cls-1" d="M269.14,675V661.62H163a21.26,21.26,0,0,0-5.77.79,30.72,30.72,0,0,0-5.28,2,25.77,25.77,0,0,0-10,10,29.09,29.09,0,0,0-2.82,11v.25a29.53,29.53,0,0,0,.87,5.77,24.39,24.39,0,0,0,2,5.19,19.76,19.76,0,0,0,4.9,6.31q1.24,1.08,2.49,2.07a12.91,12.91,0,0,0,2.65,1.66A24.36,24.36,0,0,0,163,709.37h92.91a11.11,11.11,0,0,1,4.32,1,11.47,11.47,0,0,1,3.48,2.45,11.71,11.71,0,0,1,2.37,3.57,10.78,10.78,0,0,1,.87,4.28,9.83,9.83,0,0,1-.91,4.15,11.89,11.89,0,0,1-2.41,3.49,12,12,0,0,1-3.48,2.41,10.07,10.07,0,0,1-4.24.91H143.08v12.87H255.87a22.39,22.39,0,0,0,6.56-1,24.46,24.46,0,0,0,5.89-2.65,24.19,24.19,0,0,0,4.95-4.07,24.74,24.74,0,0,0,3.69-5.19,26.83,26.83,0,0,0,2-5.27,21.32,21.32,0,0,0,0-11.5,34.67,34.67,0,0,0-2-5.48,22.07,22.07,0,0,0-4.9-6.31,22.57,22.57,0,0,0-7.31-4.65,23.57,23.57,0,0,0-8.88-1.66H163a10,10,0,0,1-4.24-.92,11.3,11.3,0,0,1-3.48-2.45,12.14,12.14,0,0,1-2.41-3.57,10.28,10.28,0,0,1-.92-4.27,10,10,0,0,1,.92-4.24,11.74,11.74,0,0,1,5.89-5.89,10,10,0,0,1,4.24-.92"/><polygon class="cls-1" points="288.09 674.49 288.09 744.49 300.96 744.49 300.96 731.62 300.96 709.37 300.96 696.75 300.96 674.49 300.96 661.62 288.09 661.62 288.09 674.49"/><polygon class="cls-1" points="322.13 696.75 309.26 696.75 309.26 731.62 309.26 744.49 322.13 744.49 322.13 731.62 322.13 709.37 435.22 709.37 435.22 696.75 328.02 696.75 322.13 696.75"/><path class="cls-1" d="M596,696.75a36.84,36.84,0,0,0,2-5.44,20.93,20.93,0,0,0,.79-5.77,21.21,21.21,0,0,0-.79-5.69,29.73,29.73,0,0,0-2-5.36,24.42,24.42,0,0,0-3.7-5.19,24.08,24.08,0,0,0-4.94-4.06,24.56,24.56,0,0,0-5.9-2.66,22.38,22.38,0,0,0-6.55-1h-104l-12.78.09v12.78H576a10.67,10.67,0,0,1,3.82,1.25,12,12,0,0,1,3.15,2.45,11.41,11.41,0,0,1,2.12,3.36,10.25,10.25,0,0,1,.79,4,10.78,10.78,0,0,1-.79,4.11,11.69,11.69,0,0,1-2.12,3.44,10.82,10.82,0,0,1-3.15,2.45,11.21,11.21,0,0,1-3.82,1.21h-118v47.74h12.87V709.37h104a10,10,0,0,1,4.23.91,11.64,11.64,0,0,1,3.49,2.45,12.27,12.27,0,0,1,2.41,3.61,10.77,10.77,0,0,1,.91,4.32v23.83h12.87V720.66a21.32,21.32,0,0,0-.79-5.81,35.69,35.69,0,0,0-2-5.48,19.36,19.36,0,0,0-2.21-3.32,36.67,36.67,0,0,0-2.69-3,38.41,38.41,0,0,0,2.69-3A19.76,19.76,0,0,0,596,696.75Z"/><polygon class="cls-1" points="740.11 731.62 720.93 709.37 715.28 703.06 709.64 696.75 690.46 674.49 687.63 671.5 679.25 661.62 670.53 671.5 667.95 674.49 648.77 696.75 643.13 703.06 637.56 709.37 618.38 731.62 609 742.41 607.09 744.49 609 744.49 624.2 744.49 635.41 731.62 679.25 681.3 692.53 696.75 698.18 703.06 703.82 709.37 723 731.62 734.21 744.49 749.49 744.49 751.32 744.49 749.49 742.41 740.11 731.62"/><polygon class="cls-1" points="887.16 661.62 887.16 674.49 887.16 696.75 772.49 696.75 772.49 674.49 772.49 661.62 759.62 661.62 759.62 674.49 759.62 744.49 772.49 744.49 772.49 731.62 772.49 709.37 887.16 709.37 887.16 731.62 887.16 744.49 900.03 744.49 900.03 696.75 900.03 661.62 887.16 661.62"/><polygon class="cls-1" points="322.13 661.62 309.77 661.62 309.77 674.49 322.13 674.49 328.02 674.49 449.75 674.49 449.75 661.62 322.13 661.62"/><path class="cls-1" d="M480.19,445.26c-5,9.42-12.65,14.13-22.12,16.4-1.57.38-3.19.54-4.79.79-16.39,2.52-28.4-9.56-25.8-26,2.56-16.24,13-25.81,27.41-31.8,7.83-3.25,16.09-4.78,24.48-5.67,28.23-3,51.38-15.07,67.15-39.08,10-15.21,15-32.45,17.32-50.49A186.92,186.92,0,0,0,565,288.09c0-1.5-.67-3.24,1.08-4.61,2.05,1.27,2.1,3.5,2.57,5.42a347.8,347.8,0,0,1,9.73,103.41c-2.45,41.44-12.84,80.75-35.47,116-18.4,28.69-43.1,50.91-72.6,67.88a208.65,208.65,0,0,1-22.39,11.56c-2.31,1-4.7,1.75-7.06,2.62l-.6-1c3.88-3.23,7.68-6.55,11.63-9.67,26.75-21.17,48.78-46.21,62.73-77.63,7-15.82,11.11-32,3.31-49.15-9.47-20.77-27.27-30.28-48.89-27.29-6.86.95-13.67,2.46-19.36,7-4.89,3.93-7.1,9.37-5.29,13.91,1.95,4.86,8.11,8,14.14,7.08a40,40,0,0,0,16.05-6.51C475.93,446.22,477.13,444.63,480.19,445.26Z"/><path class="cls-1" d="M599.07,274.45c4.54,7.94,5.42,16.82,7.17,25.41a304.14,304.14,0,0,1,6,66.46c-.7,37-6.82,73-22.51,106.85-18.73,40.4-48,71.15-86.71,93a229.64,229.64,0,0,1-25.14,12.49,4.93,4.93,0,0,1-4.15.48c4-2.49,7.31-4.63,10.69-6.63,35.93-21.22,62.37-51.2,81.71-87.89,20-37.91,29.87-78.68,34.32-120.92a348,348,0,0,0-1.38-87.42A12.69,12.69,0,0,1,599.07,274.45Z"/><path class="cls-1" d="M506.1,372.88c-14.81.85-26-10.92-26.31-25.16-.34-14.92,11.28-26.33,26.28-26.5,13.79-.15,26,12.42,25.69,26.76C531.48,361.52,519.47,374,506.1,372.88Z"/><path class="cls-1" d="M533.69,228.15c7.68-3,15.36-2,20.78-7.49s5.15-12.89,7.35-20.66c4.17,7.11,2.58,15.16,8.38,20.61s13.26,4.37,20.44,7.63c-7.13,3.5-15.1,2.46-20.59,7.83s-4.31,13.52-7.79,20.73c-3.26-7.19-2.14-14.84-7.67-20.36S541.38,231.83,533.69,228.15Z"/><path class="cls-1" d="M610.6,252.08c-6,1.72-10.3,4.08-11,10.32-.06.5-.75.93-1.14,1.39-.45-.39-1.25-.73-1.3-1.17-.74-6.34-4.85-9.06-11.18-10.32,6.77-1.69,10.92-5.52,12.12-12.82C599.78,246.41,603.32,250.86,610.6,252.08Z"/></svg>